<mxfile host="app.diagrams.net" modified="2022-04-05T16:56:45.462Z" agent="5.0 (Windows NT 10.0; Win64; x64) AppleWebKit/537.36 (KHTML, like Gecko) Chrome/100.0.4896.60 Safari/537.36 Edg/100.0.1185.29" etag="iHRPsI5yJo57rzOSWW4Y" version="17.0.0" type="github">
  <diagram id="Cvh6r4rZ5pcTfa4gw60K" name="Страница 1">
    <mxGraphModel dx="1796" dy="1020" grid="1" gridSize="10" guides="1" tooltips="1" connect="1" arrows="1" fold="1" page="1" pageScale="1" pageWidth="827" pageHeight="1169" math="0" shadow="0">
      <root>
        <mxCell id="0" />
        <mxCell id="1" parent="0" />
        <mxCell id="r74htRo2SNWanc9KCl_e-1" value="" style="shape=image;verticalLabelPosition=bottom;labelBackgroundColor=default;verticalAlign=top;aspect=fixed;imageAspect=0;image=data:image/png,iVBORw0KGgoAAAANSUhEUgAABW4AAAO0CAIAAAC6Izg6AADyGUlEQVR4nOydy44cR3q26V/eDKCNoRuYja6AGlvuseCFVwI0uzEG4kYD40cvBjZ4AbbBCxAgNiVapDz6DXpEYLwYWDAMlKGVOR5ANMxjgyNCg5ZEiCZEDimAB/HUh+r6syq7sr6I+CIysjKrMjPqeRBo5DmzMr+OyHgz4o1DIwAAAAAAAACAaA61fQEAAAAAAAAA0CeQEgAAAAAAAACgAkgJAAAAAAAAAFABpAQAAAAAAAAAqABSAgAAAAAAAABUACkBAAAAAAAAACqAlAAAAAAAAAAAFUBKAAAAAAAAAIAKICUAAAAAAAAAQAWQEgAAACAFDh2/QiJ1KrX9PwEAsECQEgAAACAFWq83kkhWavt/AgBggSAlAAAAQApMK29fk0itJ6QEAEgepAQAAABIAaQEUncSUgIAJA9SAgAAAKQAUgKpOwkpAQCSBykBAAAAUgApgdSdhJQAAMmDlAAAAAApgJRA6k5CSgCA5EFKAAAAgBRASiB1JyElAEDyICUAAABACiAlkLqTkBIAIHmQEgAAACAF0pYSvvfe1fwHBlK22VcPb7R+qaQRUgIArABICQAAAJACCUsJMTpCzM/f2jh8aP1MPj1YP3To0JGBf+PwBqW7r3hCSgCA5EFKAAAAgBRIWEqI1BEqSQmkhSakBABIHqQEAAAASIG0pYT/e/6eldyFSAndSUgJAJA8SAkAAACQAisoJbz5mzulUsKkJ8KEtWMDs4PD2savDzYQ+sJYblg7tiU2GKfBkelRDm9sGbvP9iqYHe3XG2uH1gfjv3Jf9YCJJaQEAEgepAQAAABIgRWUEkpbJYxlgokuMJ7Na++OlDBeXmxzUPk3N9g6tlZU+AfHXClhoiMUvgkT4eDgLLmIMFMfDk6kHTCxhJQAAMmDlAAAAAApkLaUMJdXwpl185u/bIAgtACx2biSfyAKmFKC7bCo7z6yDjKWEmaNF4rl2gETS0gJAJA8SAkAAACQAmlLCTEL7SVOjX1L6+Agpz0bHPRQyFsr2GvHjR0sXaAQF2ZtHKbXM1tuHTCxhJQAAMmDlAAAAAApsIJSwr1nN0KbOZV8n5Qw7eNg1PwtN4SJEDAbALKelKAcMLGElAAAyYOUAAAAACmQsJTwfzauqpXVkiVW1d3bweHrg8r/wGjFYEsJ4zTrsKA7KczOO+vg4JUSzAMmlpASACB5SqSE+L55JNJy0nL+MQAAoHdMi4n2q5GLq5qWFZH2XlG2i8Xs2mF7ybTdwVQO0EwZDwaJMGwXZc8IRUrQDphY4qUFAJIHKYHUs7ScfwwAAOgd02Ki/Wpkl1IxEONYRPB2cBjlQoPdhEG0O5gOKOnYK+RJDgYplnukBO2AiSVeWgAgeaKkhNazYxJpRKkMAABBeGkhdSfx0gIAyYOUQOpNolQGAIAAvLSQupN4aQGA5EFKIPUmUSoDAEAAXlpI3Um8tABA8iAlkHqTKJUBACAALy2k7iReWgAgeZASSL1JlMoAABCAlxZSdxIvLQCQPEgJpN4kSmUAAAjASwupO4mXFgBIHqQEUm8SpTIAAATgpYXUncRLCwAkz4pKCd9772r+0wIp2+yrhzdav1RSkSiVAQAgQGnJTiItObX9PwEAsEBWUUqI0REW+sMH64cOHToyqLiKRKkMAAABKCagOxCNAJA8qyglVNGSF389gyOH1o5ttX1PepEolQEAIADFBHQHohEAkmdFpYT/e/6eldyFSAldS5TKAAAQgGICugPRCADJg5QwEw7e/M2dsJQwWD+0tvHrrY3Dh3JMCWC2PGP9zGzHwZHp0sMbW7PjjA66Mxi7FKuCx/z1xtqh9cH4rzyseq6UEqUyAAAEoJiA7kA0AkDyICVUaJWQ1/ynVf1JTX5avZ/U+QuPA7Fq69haUasfHLOkhMlCo1WCXOU9Zj4thImDI2jnSilRKgMAQACKCegORCMAJM+KSgnzeSWMK+2yucGs6n5m3WoFMF41UQGKCfM4EVKC/5gTKWF2hOC5UkqUygAAEIBiAroD0QgAybOiUkLMQl8HB7FkWtsfdyuw6vCFEHDQDWF94DmOT0ooO+bsgDNFQzlXSolSGQAAAlBMQHcgGgEgeZASZgvvPbsR3mwuKWGSxrX92SiPC5MSlHOllCiVAQAgAMUEdAeiEQCSZxWlhP+zcVWtppYusTs4FLV9qzI/UvsazHolREkJoWMGpQTzXCklSmUAAAhAMQHdgWgEgORZRSlhFGeX4O6V2y5O6/Bn1mcWjPkqwyKxaFww3X5W/7elBCE6yFXeY/qkBO1cKSVKZQAACOAWE3LJlbtPiyI+my7WvrBx9cWTm8aOW3l/wbWNLeccgVWwSCYvSPpNn7wvrQ8WeerS47uXx0sLACTPikoJ86VJOXFmOgSj2ULBHLjR9ES0F5odJaZjOpYNBmntokgJ2rlSSpTKAAAQwComsum3Pvm6WJJN3H++N5pqCsVmu8P9B8/3kBI6TkBK6AJICQCwgiAlVEiOVwJpqYlSGQAAAljFxI2H2/lCa7P7pnCwM9yvULggJbQEUgIAQNdASqiQkBLaTZTKAAAQQC0m1CXHzt8upl86de345bvGFrZesFU0SFzfQEpoh7yuPnsS4glY1fi8O2q+zWDSjFNZMd18dkDzca8Ppr1areOLHQLXMEJKAIAVACmhQkJKaDdRKgMAQIBSKSFvj3D03C13G2OhISXIuqNWiYSlkNfsp/d98lCmGoGsxg/WD5kz0822JpZT+YrBRj4hl002FpuurRePWB5/a2PdEJi0a8jhpQUAkgcpgdSbRKkMAAABwlJCbpHw8RcPvv//PvPYLU+RUsL0U/aslomU0Aazmn6OkAFENd6u0Zv6gGWdaG1cbGEoDMpBtRVICQCwgiAlkHqTKJUBACBAWEqwBm6QywNSguONYH4dh2Xh1NVnC2ZTjl4gFhw8ydnqWX+HGYWUII+iSA5O8xSkBABYQZASSL1JlMoAABDAKiaOnrslR3902yC4EwcEpARsF1siSkqwmy44qoDUE5yNfTuZjQ/MDhRICQCwwiAlkHqTKJUBACBAZDFRSUqYfrsWn72REtrArviLebNVgqeDw4zpRs7GcgNdSjDXGPYLSAkAsHpESQkkUnfScv4xAACgd0QWE1aBopQvRtMDrR08UsLSkRaKrruiYceo2i4O1qf7zvSAyfpCGigcFcNSgnEqpAQAWGUiWyUAtA/RCAAAAapKCYdEkwS/lCA7x+ejCyIltMCkrj6Y2RSIur5Zjd+S28xUAW3Ux5EpFMnn7fNKMEajpIMDAKw2SAnQG4hGAAAI0FirBEgF7+ALi4egAoDkQUqA3kA0AgBAgMhiQh0MMlu4hCuEpeI1VlwGvLQAQPIgJUBvIBoBACAAxQSYzhat6QgjohEAVgCkBOgNRCMAAASgmIDuQDQCQPIgJUBvIBoBACAAxQR0B6IRAJIHKQF6A9EIAAABKCagOxCNAJA8SAnQG4hGAAAIQDEB3YFoBIDkQUqA3kA0AgBAAHdcBhKp3dT2/wQAwAKpLCXIJVfuPi3yymy6WPvCxtUXT24aO25trI2tdLXBfQOrYJEEBlueGCAv0Pc45vju5VEqAwBAAIoJ6A5EIwAkTzUpIZt+65OviyXZxP3ne6OpplBstjvcf/B8Dymh4wSkhC6AlAAAAJWgmIDuQDQCQPJUkxJuPNzOF1qb3TeFg53hfoXcEymhJZASAAAgJSgmoDsQjQCQPPN4JahLjp2/XUy/dOra8ct3jS1sveBgftzMfQMpoR3yuvrsSYgnYFXjJ/0RDrYZZNsXXRPkiunmswOaj3t9kG893tk4vtghcA0jSmUAAAhCMQHdgWgEgOSpKyXk7RGOnrvlbmMsNKQEWXfUKpGwFPKa/fS+Tx7KVCOQ1fjxZsbMdLPxHtMVg418Qi6bbCw2XVsvHrE8/tbGuiEwadeQQ6kMAAABKCagOxCNAJA8taSE3CLh4y8efP//fVbiWyulhOmn7FktEymhDWY1/RwhA4hqvF2jN/UByzrR2rjYwlAYlINqK5ASAACgEhQT0B2IRgBInlpSgjVwg1wekBIcbwTz6zgsC6euPlswm3L0ArHg4EnOVs/6O8wopAR5FEVycJqnICUAAEAlKCagOxCNAJA81aSEo+duydEf3TYI7sQBASkB28WWiJIS7KYLjiog9QRnY99OZuMDswMFUgIAAMwFxQR0B6IRAJJnnlYJgc1ipITpt2vx2RspoQ3sir+YN1sleDo4zJhu5GwsN9ClBHONYb+AlAAAAFWgmIDuQDQCQPI0KSVEdnDQ28EjJSwdaaHouisadoyq7eJgfbrvTA+YrC+kgcJRMSwlGKdCSgAAgPlwiwm5RLamlN0zX9i4+uLJze6XL2YJa6CYF0FFAre3bC/9NZaXFgBInoalBNkkwS8lyM7x+eiCSAktMKmrD2Y2BaIANavxW3Kb2fuKNurjyBSK5PP2eSUYo1HSwQEAAObFKiay6bc++Vp+57j/fG801RSKzXaH+w8mw1Et+WptvI7E5SAlLAnl9WjWnNN6BLy0AEDyLKtVAqRCjVeduhBUAAAQwCombjzcHpkjWOfcN4WDneF+JwoXpITuYzwjt4um8Qx4aQGA5GlGSlAHg8wWNnSR0Bm8xorLgFIZAAAChIedkkuOnb9dTL906trxy3etbfI6o9Furlgnhx2yK5ZG30Gt9V6+WbFGeBwXeIpZS2qQTesHSAm1sbp2RjwjpAQAWHWakRIgYUxnizZfVYhGAAAIUCol5O0Rjp675W5jLTTHqZYt2Wc+QObyiffP2rohLRhOQ7JzoKidajZFKnK9vWPL5XMK2C5RMc/I9KumgwMArBpICdAbiEYAAAgQlhJyi4SPv3jg21fO2jVD3xBF3hGPrEpn8c3a3Ex+yq4gJdibttpkMBEsKSHyGc0anjj3n5cWAEgepAToDUQjAAAECEsJxcANOdIxwTJiHCl1RqeXvN3HwWzgro1VVUgJsWMgm/jGUdYWQGWcDg7TFd5nZLVVWTtEBwcAWDGQEqA3EI0AABDAKiaOnrslR3+0HJ2yDfLxHeTwkAV+KWEiEigt3l0pQa3cNyElOAdHSqhPZSmhrOEKLy0AkDxICdAbiEYAAAgwRzFx4+H2+5v33OV2PbGY91Yz/fVPg6ZaJdDBoWGQEgAAqhIlJZBI3UnL+ccAAIDe0WAxYVoZCus9WWE07PnslgGTIxQLCq/GYDU1qAdgu7hQYqWE2RrjCU9iwdB3eGkBgOShVQL0BqIRAAACNCsl5GMsuqZ6xgiRAQMD0zChvJpaHDhqMMgteW10cKhPlJRgPyPtCU/hpQUAkgcpAXoD0QgAAAGalhICvQ0ASuClBQCSBykBegPRCAAAAVKREpThH2hz0Dt4aQGA5EFKgN5ANAIAQIBUpARIAV5aACB5kBKgNxCNAAAQgGICugPRCADJg5QAvYFoBACAABQT0B2IRgBIHqQE6A1EIwAABKCYgO5ANAJA8iAlQG8gGgEAIADFBHQHohEAkgcpAXoD0QgAAAEoJqA7EI0AkDyVpQS55Mrdp/lslrLpYu0LG1dfPLnZ/Qx0MtqSPr7S1sYaIy/VJHB7y/aa4HhnUyoDAEAAignoDkQjACRPNSkhm37rk6+LJdnE/ed7o6mmUGy2O9x/8Hyv/Qy0xlBOSAlLwnxG49s+ve9jTcF8BJTKAAAQgGICugPRCADJU01KuPFwO19obXbfFA52hvudyD2RErqP8YzMu+48A0plAAAIQDEB3YFoBIDkmccrQV1y7PztYvqlU9eOX75rbZPXGSefnZ3m67Olh5yKZd7g/aBKKTYstss3K9YcLJ+1k/e3srekBtm0foCUUBtxeyOfEVICAADMD8UEdAeiEQCSp66UkLdHOHrulruNtTCvN8q6ZVFP3NpYl7qA1A3W1tYNaaGo+s+av+cVVFE7ldsEWyXI9faO83TzBwNLSoh6RqJXAx0cAACgEn03eJrPY2hxx4k5YDKtODF4AgCoSi0pIS+VP/7igW9fOWvXDA1hwNzuYLG1hVXpLAovczNZplWQEuxN3XosVMWSEiKf0azhiXP/KZUBACBAvw2e6lCjR2dNkpESosDgCQBAUEtKKHT9HOmYYJXTI6WYc3rJ230czOLJaA0vK5tuq3ifPmBjqhZGCbBaReNicDo4TFd4n5HVVmXtEB0cAAAgmn4bPNUBKWE5YPAEACCoJiUcPXdLNg4spovNcvlfth4s8EsJE5FAafHuSglqYdWElOAcfLWKxsVQWUooa7hCqQwAAAEaNHgaWR857Cqj0RPS67UUsoKy/YNG9muJ8vFEPaBrDqU04/T+EOUyXFbBWwqDJwCAqszTKiHMjYfb72/ec5fb9cRi3lvN9Nc/DZpqlUAHh4ZBSgAAgGXSoMGT2TIuZOQU8FoKWEGp/kHqa4ssCz0HtPeUc+EfotsYOayCtxQGTwAAVWleSvBhFjciZzYLSZF72wKv6YhTlKfBamqwfFuForFFYqUE41XI6uBgvNdQKgMAQIDmDJ5UI59ZwwC/kZP/1cP3+UKUkIqU4P2O4rzE6NcU/UOCrTFXwVsKgycAgKosVUrI28G5ea4xQmTAwMBsXVZeTS0OHDUY5Ja8Njo41CdKSrCfkfaEp1AqAwBAgMYMnpT6cVGmlTRrtxaUW0GJMlGtqFploXZAv5RQ7Yd4myWsgrcUBk8AAFVZspTQiiUQJAKlMgAABGjM4Cm+Bh7yWoqzgvJLCWrnS10+WJqUkK63FL0yAQCqsiJSgjL8QxIF32pBqQwAAAEaM3hy69Vmv4BADXxWwaxuBWW8KbnuBYEz+6SEGj9EsgreUkgJAABVWREpAVKAUhkAAAI0bfBkuBXq9UzL2Ed6LUVaQelSgmaD6D2gXa21K7wxPyRSSkjXWwqDJwCAqixPSgCoCdEIAAABmi0m9JEclRb9Xq+lKCsoTUrwtaX0HFCsKRsM0vtDoqWEVL2lMHgCAKgKUgL0BqIRAAACdKGYoA0m5HQhGgEAFgpSAvQGohEAAAK0X0z03jkAb6nGaD8aAQAWDFIC9AaiEQAAArRSTJiVb+rdcAAvLQCQPEgJ0BuIRgAACEAxAd2BaASA5EFKgN5ANAIAQACKCegORCMAJA9SAvQGohEAAAJQTEB3IBoBIHmQEqA3EI0AABCAYgK6A9EIAMmDlAC9gWgEAIAAFBPQHYhGAEieylKCXHLl7tN8NkvZdLH2hY2rL57cDGegWxtrhc/xxP04ZHoc3qB096oEDigvG8LM91xmVtjOwNyUygAAEIBiAroD0QgAyVNNSsim3/rk62JJNnH/+d5oqikUm+0O9x8834uXEnpETy+7uwzWpWQwvr3T++sOzk2pDAAAASgmoDsQjQCQPNWkhBsPt/OF1mb3TeFgZ7hfmnv2tE7e08vuLoaUYN5d515TKgMAQACKCegORCMAJM88XgnqkmPnbxfTL526dvzyXfdosu36wOzgkFcnrQ/R47rkZIVR33RawJsftvMv21Psimmx0mk9b16nXO27bAgjbqN+82c39uBJISUAAMD8UExAdyAaASB56koJeXuEo+duudtYC8f1xqKCnlciHSnB9416trhQF8ZLN9ydZAt5cy6vx4pKrF9MkAcMXDaEsaQE/eYrsg0dHAAAYB4oJlKnmbahsxcM8U3Deiv0OTe5y33XRDQCQPLUkhJyi4SPv3jg21fMWVVGo6Io1jlfsq2lWoat7z6yDiJFiJLCKHBAt34LPqxnqd989YnZLUoOoFQGAIAAbjHxvffGJtAvnb4mN/iDjavFBn906lq2JNtsqRcKc9KElJC9eMzeQYqDGe934q3F+EQVWO5+n+KlBQCSp5aUUAzckCMdEywjRjfz91Uni2nPBgc1TXkso1GDXcSox7PrthYB5QKvhHh0WWhkNS2x26EYBTYdHAAAIBqrmMh1hCIVG6izlC99oP5bmFrrH+NtFjl7afEtHxn6xBSCCgCSp5qUcPTcLTn6o1sG5+M7yOEhD3Aq+d4v0wczRmlhf7o29YQFSgnBy4YwlaUE+27bD4lSGQAAArjDTknJYGR+C3G3F/j9laQhk1g8Kc0GRrs6Tys7cYCQbVMC+AywPPcwv+dGV1K54WRR1efiHFOp8s+u1vMZafo7fMunZ7IeJy8tAJA887RKCHPj4fb7m/fspU7V3dPBYSSK41l+7bSCH1kqseKkMNtq1sFhrlYJdHCYE6QEAABYJq6UYE1nf7//T9ezFCMlqBY/WxvrqjvTpLYq276bc0oL+RV4pfAYYHnu4eTerK0bO4gbtzGVEqo8F+WYpW0S1O9X43W+5cVeGDwBwIrRvJTgI8p2sZhdW7OXTMsNWRzbpowHB9Y6u80nJWC7WINYKcFofWJ1cDCeEaUyAAAEUFslWD0ailXFBv99+0mW/ueOaEoZ6a9kWiuZ1Ur1e4gy5FTS7xTeFwFtE+vNTBVaqj4X+23Pqe9PXRT1l07zpL7lxZz5XslLCwAkz/KkBKPxWd46zaf/OuMrmIWC3X4tMBik1fRtDikhcNkQJkpKKG6v6KDoa/lJqQwAAAFiOjjk6Q9PXB1pWsOU0DuDMea07tLsmTPGQNY6PySHp5epeg+dj/zKvan6XNzTet795OeL+VolODIFLy0AkDzLlBIAakE0AgBAAF8Hh3/78qElJfz22+fZ7N7+bMl3O0NxJF+VVfZjCAz4FJAS0pYOHBQDLN89rCMlxB0zZJUgzmifejrvW15cDK0SAGDFWHEpQflAsGKFfJ9IPRoBAKAWzRUTnipr5HhEvrlgi8hEcQywvPcwpvVo1eeiSAmhJqlKx1lfh9rSRgm8tABA+qy4lAB9gmgEidUymUSaL7UdyNAkzT3TQJVVdt2r2MHBdXRaT19YsA2wvPdQGyBBs12s8lycbqlGhX+wYVozaD5ZjlGmx4WBERwAYAVBSoDeQDSCpPUqKCmN1HYgQ5M090yDn7mL3vhVOzhM57yeQEniGGB57qHiRiXulWa5UP5c3GPKh6G6Xjin1n0aDwUkihxyGABIHqQE6A1EI0im8fA1iTRfIktJD54plBPyS5gT1c6RaASA5EFKgN5ANIIEKYFUM5GlpAfPFGJo1v7SN7YX0QgAyYOUAL2BaAQJUgKpZiJLSQ+eKXQHohEAkgcpAXoD0QgSpARSzUSWkh48U+gORCO0S+tWRKQ0UkmYxURhc1ENMD9EI0im8dB+jZTU00SWkh48U+gORCO0S+tVUFIaqSTMYqKwuagGmB+iESTTeGi/RkrqaSJLSQ+eKXQHohHahdckUs2ElABJQTSChDKSVDORpaQHzxS6A9EI7cJrEqlmQkqApCAaQdKRMvJ7712NaBv29VcPb7R+qSQrkaWkB88UugPRCO3SkdckUn/TQqQEueTK3afFu3I2Xax9YePqiyc3u5CBjsf7aWLAn6aOE3NA36hCvWO+mzbZa4IzRjOlMki6UEbG6AhduM48Tf65jgw6c5zWE1lKevBMoTsQjdAu3Xn9IPU0NS8lZNNvffJ1sSSbuP98bzTVFIrNdof7D57v9TsDzV6WnarsckhGSojCvM/j3z798e6wz5TKIOlCGVnFtKb9ImH+NDhyaO3YVuuX0XQiS0kPnil0B6IR2iWF1w9Sq6l5KeHGw+18obXZfVM42Bnu9z73REpYDsZ9Nn+6cyMolUHShTIyu4D/e/6eldyFrV9n3YSUAD0h8Eyf7AxPf/rNkbPXXzt5JUvZRDabLVzyFcLqQA4D7dKF1yRSr9OivBLUJcfO3y6mXzp17fjlu+7RJt+cp9hVxrxhu/giPW3lPpA1SnkIuwparJutmFVUZ0c0L0A7oLHtZDNLWAj+EOUyXKwDen9vnxG/Ub8zzn1GSoAKdKGM9EkJb/7mTqmUsLVxWMT/menyX0/i/szkn+OgE4HIH44Nsr2KjbeOieyrqOrnR/j19N/t8MbWwRkn/5K/Hk8Pjjj54RnfAc3/0zPGccp/iHIZ4uxiYVfLSOgXvmd64eajNz68dvidi1bKFmarln+dsAqQw0C7dOE1idTrtAwpIW+PcPTcLXcba6Fsu27OjafX1tZl/X9WzzYUhmzTYjP7CEYFVYgCboV+cr6ijqse0N5TzoV/iHoZLvKAgd/baywpQb8ziqZCBweIogtl5NytEibV78JuYFLfPqiE/3qSHx6R9f+ZTJBXwqfV9a2NYjP7CEUtXe5uSQCzK5lu4Dmg3SpBHif8Q5TLGKsVUwVhcAwpAZpFfaYXbj565filQj54/YPNH/18s5jNVnVcTUimrWLjtlMdhxwG2qWt1yTsqJNJC5cScouEj7944NtXzDmV+lnZKKv2ypZuldLZ0DyCKHUVKcE6m37AgJQQ/UOChX/ggN7f2zcsKUG/M+rttJt7HECpDJKOSAlzeSWcWbc+yI8r2HmFfCIlzCr89paT/OGMcjGz2r55hNmRNSlBVuy9BwxICdE/pFgurqf1RJaSHu4zfbIztNojvPz2ZrbcapuwpJ4Oc/WdnFNKaK+fZjvXsLRzRZ+IHAbapZXXpH7ZUTeVAnbUvXaqXriUcGg6cEOOdEywjBi1+nGRGZc0a7cWGJ0LhJRgHmH2AdytqFpFgHZAv5RQ7Yd4SxtTBgn93v7idHCYrpB3xvFKEC1Q1qxbTakMki4UReoFuAvtJePGBVa5UtTJ834B0+VOxXtLdnCwOhcIKcE8wqxpgCklWLKF74B+KaHaD5ktn0iFbT644rmQpSSG+0xPf/qN1anBlRKylG22jOtDSkjgXEgJ0BNaeU2a9xNLQikhe6nmpYSj524VESBHgiw2y8d3KDaYHSi+Bu5saTYyUGv7sVKCU7v3HXCJUkLo9/abylKCfSvsO0ipDJIuFEU+KeHesxuhzeJr4M6WQkqY+Ckotf1YKUF2bQgesFkpoZhtX6cnS0kP95m++dH1GCnhyNnr7tHkl4ZJ4aRYO4lt7OGIrMWuDZN390oOStHnWjJh26nJ9MBohuhplKjfInPgaOX36tZasefNL3W2xndjfT5cE8hhoF3akhJWwo46kJAStCiswI2H2+9v3rOXuvVqs19AoAY+q2B6N4yTElz3gsCZfVJCjR8iCRww1Q4OSAnQLF2QEv7PxlU15y1Z4nYrMPsFeGvgsoOD2WBB6AJxUsJYBfBdg3VAv5RQ44eobSKWnMhS0sN9pq+dvBIjJWSbWYeymsltTKUEae1kvzbM9IUoGybf7pUclCLP1Q5+2yn5Jeegxi7npNTi3iLjLWJD7S3quy2R583vuuH3VHZj3Zc+chhol05JCWV21GZ/SflColk1ixaUh6XHk+FaHeHxnL/PzI5mSgAeV2nlyMV7UWJO1e1ICT5Mux3T+tDtwaAWovZOlTo4aDaI3gPa1Vqn/Iv4IZFSwsrYLnqlBKN8tr7VGDeQUhkkXZASRnFt+dTSy3IrnJY0Zg087w6g2i7Kynn+kb+ClHBmkuv82rgq7wHt1geyXIz9IcXBB0emC61f2tqzazuQoUnCUsIP37388tubT3f2RuVSgqrqh62dPG0KvQ0efbvXcFDyN65sh7CU4GuParTb1G6ReqcDv9d6Fyw/b/DThnoi7ZWPHAbapVNSQlmrBI+UoFk12586pENT4Vod5/E8FQ1n7y3C2drjKq0d2f5Uk4pTdbekhJG3uZlbJogN8yEE3aaA2f5VOji4bdBm0rZyQLGmbDBI7w+JlhICv7fXREkJ5n02HxSlMoToiJQwd5LKtKjVuxXsX4v84Yz0SjB09CodHLT88Iz/gOIayiR27w8pLkOMN9luk4TIMhL6hftMj5wdd3BYO3Epb4yQkU28/sFmSQcHvfru9sdU3yymm7qlmfNdQtm9uoNSjOVTOwSlBK8oE3p1M97djLvi/F71tkSdVzlYaJ3vhY8cBtqlV14JASnB14/Setnwek4H0qylp/3K5HeV1o4cJyX0z6m6c1LCfHShNIQu0IVohO7QdylhvmRV40l1EllKerjP9PSn3/zsV7+7991ONv3jM7+1FASv7WKslOAbXyrChsm3u7O8bDyoKMundmhASgh17TD0BKdHq3qyRUgJvi9H5DDQLm1JCTELozs4OFbNswb/UmH8Wm/UWebx7LxTTS+jzArKOnKUlNBDp+okpIQKDfu6ia89BFSm/WiELrGKUoJSDpHmT2Qp6eE+0yc7w5/+8vOf/OIzn4igDwap1w7j2h5G2jCFdo/u4BBt+dQONaWEYOvOCR5zrMhho4JSgnHP5bx1Y7XusznkMNAunZISSuyoA14JI9Oq2fsipPWaLPN4nktKUI68MCkh6lcs9Gn2UkowK9/Uu+EASmWQrIiUYOaH6AhNJrKU9FCf6YWbj145fsmnI2Srsg3cQ1nmPYXtol3BlH0a1p0KcJkNk7J7JQel6HO1g9eLoEqV3r1Fg3XZ7VX0j9TcGs3bUuW8hgmj2eLB8HjyqR3kMNAurbwmzWlHbVXUlVr3tAuA4uI820D7eh/yeLY7OBTnDblKK0eOkhJ66FTdVykBQIVoBMmKSAmkxSWylPTwPdMLNx+98eE1tT2CqiPkCCFv9pXcHQ7atSmItGHy7V7JQSn+XG3gtZ2KrNKP1FsUHoEz6IRVpYPDQD4F9UeF252Sw0C7tPWaNJcdtfQgNEZhcK2aB5bf87pmFBXn8TwVDb8uzlvuKu25JHOErEScqpESICmIRpAgJZBqJrKU9Ag80yc7w9OffvPmR9dfO3klS0fOXs9m7X4NABMa6R1CDgPt0rfXpDNTae7IwPAdLFTBXxcbmwpjvtytjSs7Wmnyn35GmlvLtbqrtHZks6NEOk7VSAmQFEQjSPpWRpI6l8hS0iPpZ4r10vJASoAE4DWpNGFlHU5ICZAURCNIKCNJNRNZSnrwTKERkBIgAXhNEumMJsUiJZQkpARICqIRJDGd8Uik0tR2IEOT8EyhOxCN0C7TCGy/RtrZhJQQTjGZGFIC9AaiESTEA9SEEEoPnil0B6IR2gUpgVQzISVAUhCNICEeoCaEUHrwTKE7EI3QLkgJpJoJKQGSgmgECfEANSGE0oNnCt2BaIR2QUog1UxICZAURCNIiAeoCSGUHjxT6A5EI7QLUgKpZkJKgFK2JgOZ1j3KeIgq4yjKYWfDWJm2yO5y3zURjSAhHqAmhFB68EyhOxCN0C6tuxqT0kglYRYThXLJ997bzJa8dPqa3OAPNq4WG/zRqWvZkmwz+1iNDK0DDdOElJA9WXGIQhqQhx2f5uDpjyeLdYHlbrDEBDSsDsQD1IQQSg+eKXQHohHahQiEmjQvJeQ6glQpArP2uZESukh9KcGs9R+0T7CaKZizM/3At3xk6xMTyBNBQjxATQih9Ag80yc7w9OffnPk7PXXTl7JUjaRzWYLl3yFsDqQw0C7EIFQk+alBEsyyCeKVYFTzhqxT75WWxXNogqZqw2Tz9NKS/jZ8lXVJHz3Td4acW9ymSC/9we7yQ0ni/JtisXixkYeU6nyO1dq6xXTtb7l052sx0yeCBLiAWpCCKWH75leuPnojQ+vHX7nopWyhdmq5V8nrALkMNAuRCDUZCFSgjWd/f3+P13PUlhKGCNbJRgtFGYVyryGKrvMay3hla75q4Lnvm1trE+Xyps2uWdr68YO4oZuTKWE4paP7+vs7sceU9N1zCdkN0iZXrlvebGX+ZDJE0FCPEBNCKH0UJ/phZuPXjl+qZAPXv9g80c/3yxms1ULUhOa8SJa7pEXyuQdr4fXPS/kMNAuRCDUZFGtEqweDcWqYoP/vv0kS/9z56lxLKPeKGZEkWhLBEZLeFnp7GkxWh/9vnk2MeQXjwBjblP5mJ5GCRFSwniBb3kxZ6oU5IkgceNBLrly92mRU2XTxdoXNq6+eHLT2PGgAY6miQVWgUOgE9uiqxAxx3cvjywlPdxn+mRnaLVHePntsZeT1TZhET0dot5U5ur7Oec70PL7mS7zjEs7V/SJyGGgXYhAqMmSOjjk6Q9PXB1pWsMMM/Mt5mSJ6OTP0wVGBwnF1W91UO/byOyOIKv9Rn1euWfmNq6wED6mr1FCI60SHJmCPBEkbu701idfS3Hz/vO90VRTKDbbHe4/eL6HlLAIOu6Hg5SwCrjP9PSn31idGlwpIUvZZo1fDFICUgI5DLQIEQg1WWAHh3/78qElJfz22+fZ7N7+bMl3lsZvZb4Hs0aBGJQSVlM6cFDu20RoUTqP1JES4o4Z3ypB9UTwLS8uhlYJ4MeKhxsPt0dmJ6yc+6ZwsDPcrxBFSAlVQEqA1nGf6ZsfXY+REo6cvW4eyYwXs/lkwNRJDm88kOWlZj9k2Ug5GxqH9h7ZJfpcC8U9o9PPdVBc6NQ+Sbk+/YaY40grv073e4o9r+8p2ydyP3SJayeHgXYhAqEmzUsJtbDf44r8vLzK6TSrX2Wc++ZtWBBqcSCXKttEHtNbeXBHcFDfybzvagcr8UoAP2o8qEuOnb9dTL906trxy3eNLWy9QLxXbiAlVCBQxXKVZL1SZFYPcrSKhO3/6tjI+KoQSAmJ4z7T105eiZESss3MI4WkhEMeUyfpNzQyLI999kPaeTRbqMCRXSLPtQw8zVFH5vcKMw+O8MmSSwcbs1q+cSf1mxB53sBT9t1G9yWLHAbahQiEmnRPSjCLvnFuvGZXHg+FCmUh76+v7rt9ft/M92ajvAtU+1XbRY+UEHXMqBEcjGfpvBh4XBgYwQHClEoJeXuEo+duudsYC43XSaNbj1IfBT/hKpb2X29m+lr1wFOzsv1f5fEDVQiylOQJSwk/fPfyy29vPt0Zd32qJSVEmTr521M6X+e1QJZnjT5yhXMthbCU4PuQNNvOc0PUDh6BXydWxZ038JQ9J9K+1pDDQLsQgVCTjkkJxTu60d5Pb6jgthMbme3KVvrV3ngTH2N8BvR3RhgZ91CzXLCaH0QdUy1Ulfec2al9j7VMoiBPBElYSsgtEj7+4sH3/99nloeLvaOUEqbhaLaQXen8Jp7Ay7f5iu6pFOk5llqzUvxf9YcUODFZSoq4z/TI2XEHh7UTl/LGCBnZxOsfbNbs4KBs6QRwhKWR8qXeQq05l3ollJ9rOQSlBG+boWLOd0Omv8/5PGX8OvUmRJ038JS1db5mn+Qw0C5uBMoluFMvn7Dg2VN36mVKCQ6hrBr6g94woRaqnSOlMkjCUoJVNMrlASnBKRPND+0QJJCjB9RIscCpHgQrEoGeVhFViDFkKemh2i7+7Fe/u/fdTjb94zO/tRQEv+1idSnBkdDtXhE++cDzpd44QwUpIe5cy6EBKSHUkcPIMOz2HfpNWISU4OuDSw4D7eIa3uFO3S4dr+f2TkpQ8t6O32LwUaGxZQS+lyRKZZBY8XD03C2pr7ttENyJAwJSAmVkFaKkhNJKkaweeHOWgJQQWYUYQ5aSHu4zfbIz/OkvP//JLz7ziQiewSCdSqavg0MxrzW0VFvc2N12jAzH97Ie3cEh8lzLoaaUUO6Tpbd9CtyEeCnB6wpt3UanoWgBOQy0ixWBuFO3TsfruX2SEg4+NVXp6QZAqQySyHioJCVM8yarmw/ZUhSBl2+zVUJppWi6kbci4ZcSYqsQY8hS0kN9phduPnrl+CWfjpCtyjZwjiSNNgbSx8mYMeuRzozmA2LYD9n/AGYb1Jnvh/fILtHnWgbOr6smJfhuyGBd8Z2W5/LfhCrn1Z+y+aP8QgI5DLRNqaVUsQR36uUwSNGdutUODgBVIBpBUklKiOzgoDepp4yMI1zFMt7r1UqRVj3w1KzCUkJMFWIMWUp6+J7phZuP3vjwmtoeQdMRcorcYH1gd3DwmTptyeUyTD32Q2KNOXaAk/V4j+wSf67FY5xxDilhpN4Q7cXZOpfvJlTp4FD2lKfv6QZiS3IYaJdSKQF36iUzSNGdGikBegPRCJKqUoJskhDqBCjfQAfI7RUIvHyb5ZOnUqRXD9SaVcgrIa4KMYYsJT0Cz/TJzvD0p9+8+dH1105eydKRs9ezWadfQzk0n1wFGnnK5DDQLmEpAXfq5WO3DEvCnRopAXoD0QiSxlolQKu0WDEjEtJjCc+0S1JC+KM4zA9SAiRAWEo4hDv10omylOqbOzVSAvQGohEkkfGgyu3ZwiVcIZSz/M7bArKU9FgxKQEWBVICJIAVgbhTt06UlOC8F3XcnRopAXoD0QgS4qGnmBp6m99QCaH04JlCdyAaoV0qNd5UJw7AnbohknSnRkqA3kA0goR4gJoQQunBM4XuQDRCuzTWDxR36oZI0p0aKQF6A9EIEuIBakIIpQfPFLoD0QjtUlVKkE0S/FIC7tTzk6Q7NVIC9AaiESTEA9SEEEoPnil0B6IR2qWxVgnQKh13p0ZKgN5ANIKEeICaEELpwTOF7kA0QrtERiDu1J2m8+7USAkrjjJE6RzM4lw0srEktNkax720pFHOFKIRJG7JRyLNkdoOZGgSnil0B6IR2oUI7Cn9cqeuLCV8773NbMlLp6/JDf5g42qxwR+dupYtyTab65phyTQhJWQhP7MQKQ5myGjC42PSQ0fahniWu415yBNBQjxATQih9OCZQncgGqFdiECoSfNSQq4jyI85gVnCtw/UlxLUWv8Yc4gTdeAR3/KRoU9MIahAQjxATQih9OCZQncgGqFdiECoSfNSgiUZ5BPFquAp8ypr4Rmpu1TKxZbL5bhauWXMjZQDJO4gavWXmVW99XuY33Nj5BG54WRR1efiHFOp8s+uVh3CdPY7fMunZ5rDRxRWB+IBakIIpQfPFLoD0QjtQgRCTRYiJVjT2d/v/9P1LMVICUWVVI6kWYyAaTVxn9RWZdv3Q2Ut5Fu2plgGhomnHBxEvYeTe7O2buwgbtzGVEqo8lyUY5a2SXC8R6dX7lte7GU+TPJEkBAPUBNCKD3cZyqXXLn7tGg1mU0Xa1/YuPriyc3OBkO49WCL5t6JYQ7PXmkv/WMWOQy0CxEINVlUqwSrR0Oxqtjgv28/ydL/3HkqjmRU+b0Fozm4pVmtNOdmlV+ZeTdjIthhxO8tv4fmPdeFlqrPxTqmW9+flqrWRo5kMF7gW17MmQUzeSJIiAeoCSGUHu5Ly1uffC1fVO4/3xtNNYVis93h/oPne8sIhrnq/UgJHUIZ/F3tyTmGHAbaxaq1kUjzpZIwi4lCd9aayNIfnrjqRq04klkUuhVYpy29mV175kyPy/adLhdP8dOtdwvtHjof+ZV7U/W5uKf1vMNMdtYFn8hWCY5MERPQsDoQD1ATQig9rGd64+H2yGxQmXPfFA52hvtLigSkhL7jaRzqzo3IYaBtiECoyUKkhHzi3758aEkJv/32eTa7tz9b8t3OUBzJV2WV/RjsVglxUkLa0oHDwW+X99N3D+tICXHHDFkliDPap57O+5YXF0OrBPBDPEBNCKH0UJ+puuTY+dvF9Eunrh2/fNc9msddyOdAVGI2ZHz7kJ00tfbxstn8IEJKmB1Hb9p5ULwHbh04zT5tGynnCSIlQKchAqEmzUsJNfBUWf0fxaOkBLu5/SpQ+FHKNxH1HoZaHMilVZ6LIiV4H8DsRcZtERhePt2dtoLgh3iAmhBC6VEqJeTtEY6eu+VuYy30uQvZDkSaW5PPBEop9LTdpW/RyBAuFPL1sg6sFbDJd/9sAEtKUG2k7Jce71BVY8hhoF2IQKhJX6QENeuOkxJsmxxRfKfL+Nevra2p7zLGPdQGSNBejKo8F+d1xKjwDzZMawbjXUhzW/AtHzGCA5RBPEBNCKH0CEsJuUXCx1888O0r5iLchSLdmuRWxh6+3W2JPtz+0l5rtC4sM1cCgXW/dB3G+X7iGVtsDDkMtAsRCDXpg5Qgc+FsQdUODtM5pyFh0hiV9DGee6i8O4h7pVkulD8X95jyYaiuF86pdZ/GQwGJIoc8ESRuPMglPbVqLwh4ia9spQB/dSglLCUUuUGOdEywjBijugQG3Zr04tCSFdTdnf/wil4JijH1ymYalfBKL94Ws86AYnRwgC5BBEJNOiUlQLqE/BLmRLVzJBpB4jq5dMuqPUwNqzRqBSHwV19trGd69NwtKSkW08VmeaYhNccDYqUE9V/RawLlSAmeIZMakhI0cyXwUllK8DcIySGHgXYhAqEmSAmwJJq1v/S99RCNILHioXNW7WGQEhYE/uqrzRzPNMs63t+8Zy+t5C4Uv5XdjM+3e40ODsa8Y64EfpASIDGIQKgJUgIkBdEIklJ/tWJJqVW7zwJ9jObEHm3kHmkDrqB4e02PsbL1AvzVoZQGn2m5u5DPrclvAmVVPn1mT3PYLsoRnaysY21tRXOMqsRKCYZSY3VwMDQgchhoFyIQaoKUAElBNIKkVEqIt2r3WqB7ndgjjdyjbcAd7E9f0fWKhMFfHUpp9pmWuAvZ22i+QaYJ1GyNMZizq2EKZTLXzEo6OAzk9sbqVRzoak6ipAT7CYbcushhoF2IQKgJUgIkBdEIkrCUUMWqvbSZqthOH3DE58RewQbce6qKdu4Jg786lMIztanRlwpqQjRCu/TLnRq36fq04k6NlAC9gWgESVhKOBRv1R72LdOd2CON3CNtwBUCo6asbJmKvzqUkvQzVTKaspyANgltknQ0Qg/otzu1YGVfexZC0+7USAnQG4hGkFjxML9Ve0hK8DmxRxq5NyElVLRzTxhM0aAUnmnBgfCwknlFRyAaoV367U4tWNnXnoXQtDs1UgL0BqIRJHPEg27VHrBA99ZY44zcG2uVQAeHMUgJUArPFLoD0Qjt0pw7tfsh27V7UdtyWi7UIbcn3Kbr04o7NVIC9AaiESQNxoPXAt3rxB5n5B5rA65fEraLFvirQyk8U+gORCO0S3Pu1B4pwSh8N5TPH6YLtTSrduG1pz6tuFMjJUBvIBpB0qyU4LNA9zixRxq5x9uAq5c0j517wuCvDqXwTKE7EI3QLs25UwekBPdVKMKFWgO36fq04k49v5TwZGd4+tNvjpy9/trJK1nKJrLZbGH4gABzQ6kMkqalBJzJVg6ylPTgmUJ3IBqhXZpzp/Z1cDiohFZ2odbAbbo+rbhTzyklXLj56I0Prx1+56KVsoXZqvAxAeaDUhkkqUgJc7iyQzOQpaQHzxS6A9EI7dKcO7XfK2Fk6gmRLtQauE3XpxVLqXmkhAs3H71y/FIhH7z+weaPfr5ZzGarOq4mJBOR8w0f2l8olUGSipQArUGWkh48U+gORCO0S3Pu1OZbkqIXTKugkS7UGrhN16cfUsKTnaHVHuHltzez5VbbhCX1dJirBjCnlNCF2sYyr2Fp54o+EaUySIgHqAkhlB48U+gORCO0S3MRKFu+CxfEwbpsGp9PR7lQa2C7WJ9W3KkrSwmnP/3G6tTgSglZyjYr/8X1QUpI4FxICTAXxAPUhBBKD54pdAeiEdql0QgsOmMK82dt1Ee5qdeF2nMC3KZr0oo7dWUp4c2PrsdICUfOXnePJuJCmnAYcpMelnJPqao4fYs9UV1leNLocy0Z9xosAU9a0E/HClWuWL9F5sCwyu/Vbkv8efNLNczw1R/ldhsX106pDBLiAWpCCKUHzxS6A9EI7UIEQk0WIiW8dvJKjJSQbWYdyvKI3CiGBhGjjHoGI521j7HdJV0JS9u9UjuZyHO1g9NZyfxZopORNSelFvcWaQPDOvdWvy2R583vujHYadmNdftbkSeChHiAmhBC6eE+U7lEOo3lpmL59AsbV188udl4MCzuS1r4yF14W+kj8/lPmR9iDMhhoF26GoG4TfeGhUsJP3z38stvbz7d2RuVSwmqZYZVW/QNRuocyfwWv1Wye43hSb3naomwlGAOxmI3CXD3L26ReqcDv9cc+zXivEFfD/VEmnFLV/NEaAfiAWpCCKWH9Uyz6dyTvJi9/3z8xmINdbY73H8gBkJriigpYQH9NLvwtpIsSiNs8dXKfCjkMNAuRCDUZCFSwpGz4w4Oaycu5Y0RMrKJ1z/YLOngoFffzdLQOxjpdFO3gb3zXV7ZvfrwpOXnaouglOAVZYq54HCvtijo/F71tkSdVzlYaJ0uJJAnggnxADUhhNLDeqY3Hm6PxDjqBfdN4WBnuL+ISEBKSBBnSHazN3LlIdkBFgcRCDVZlO3iz371u3vf7WTTPz7zW0tB8NouxkoJatkoG9H7K9C+3asNTxp3rrZoQEoIde0w9AS7xYd+WxYhJfiGkiFPBAnxADUhhNJDfabqkmPnbxfTL526dvzyXXMT9+vz7OOzav1T7FYsN4yZlmj5FDInsgaDX9vwHWQFcRzLils4a9gZ+lSFlAAdgwiEmixESniyM/zpLz//yS8+84kI+mCQeu0wYC8Zt5Us60O7R3dwiDxXW9SUErzDvRaILex7Wz46aVhKMO65nLdurOFsYUCeCBLiAWpCCKVHqZSQt0c4eu6Wu425MCQlHPJY/wSMmZZp+eS9wsAXdXCkBENB8L0KWs+IDg7QJYhAqMlCpISMCzcfvXL8kk9HyFZlG7iHMvxshO2iXcF0ByOVRauRvWs99ZWxTKuUwdHnagevF0GVKr17i7SBYY1z+W9LlfPqr1vmj/ILCeSJYEI8QE0IofQISwm5RcLHXzzw7SvmglKCbv1jf3AINbVcpOVT1BWiJDhYd0dXXQJ9P53bSQ4D7UIEQk0WJSWMJmrCGx9eU9sjqDpCjmgbNvtKbuW9sv2Y8VG8WOTI6nYlVWkaWGF40vhztYFxDXNICSP1FoVH4LTGjjVvS5UODgP5FNQfpZg5MBgkeCAeOkkzFZRZXcgpNoxttBXuct81EULpEZYSioEbcqRjgmXEWNrBQdmyzJhpaZZPgR6FRiNFlAQTr9DibYrpjJBFBwfoEkQg1GSBUsJo0tPh9KffvPnR9ddOXsnSkbPXs1m7XwPAhEZ6h5AngsSNh++9Nx7O7aXT1+QGf7Bxtdjgj05dy5Zkmy31QleLJmooWX4xU4eNJktGx3MphSotqOzlbhZElpIe1jM9eu7WITH6YzFdbJaP71BsII5UXUpwmgrYvSJKbZh8jQ1CR1aIMCdCSVCoLCX4m3/kkMNAuxCBUJPFSgn9J/wJHJoEKQEax4qHXEeQlYTALIG0MOpXUdRa/xhvr2Sj/XbA7ca+LiIhPeZ4pjcebr+/ec9Z7Dbn83RwKOYDxkzLtHwKmxPN2gjyvmODlACJQQRCTZASoCsgJUDjWPFgSQYjs1Wzu71AN+uerlFa0VsddqYtkAO9d9zm+Z3AehOevQjrPzy/UYbzidywqE5VuZnOMZUq/+xqRYMDrarkWz49k/UMyFLSo7lnKlu1GDEfsP7xGjMt0/IpbE6U/x+toSQoxEoJpruT2cHByGPIYaBdiECoCVICJAXRCBJXSrCms7/f/6frWYqRElSzbp/pumysfFBBLmls3w3fVhen3++04qP+8MkPWls3dtDMdKvcTOWYpW0SHG1yeuW+5cVe+KunTqPPtGi6aHgsRVn/2Dst1fIpeIUxYzmtKFFSgv28PI9rAjkMtAsRCDVBSoCkIBpBorZKsHo0FKuKDf779pMs/c8d2Snab9YtsUYkMb8jagOr+MzYO0WEo7vZGEBv8z2j6s20qzVOfX/6pm5/V7Ulg/EC3/JiznzVJ0tJjyU800Ya2bVJ739AbyCHgXZxI1AukfYxuVNMPv3CxtUXT24uKHTNhlexqxo/VzdfyOoz3z30mViPkBIgMYhGkMR0cMjTH564OtK0himBD1C66XrUwCU+M/aO4XN0136485Ff+UFVb6Z7Wk8tR7Yenq9VgiNTkKWkx4pJCXNYPtEmYXmQw0C7uK9JudFsMXv/+d7IGb9md7j/QIxus0Day0xTlRKicD2FfU5ASAmQGEQjSHwdHP7ty4eWlPDbb59ns3v7syXfGWPN+Gq/XtP1aCmhDyWV4uju++F1pIS4Y4asEsQZfbZyQbs5WiWsAismJVTjQHjoQ7aUBuQw0C5WBN54uD0ye4Pm3DeFg53h/pLiFimhFTw9W925EVICJAbRCJJm/dWU2m/kyOK+ud58/HMc3b0/PNTiQC6tcjMVKcF712bKgCuqh5dPd8crIXV4ptAdiEZoFzUC1SXHzt8upl86de345bvWNnnhani+iLVGk0Nbzzd20BtuTr8R2J1ClWP6rZ0drAPKa0l1EBunz6p9o5zbjpQAqwTRCJKlSAm66XqUlOA3Y+8auaO7KVKrP1wbIEGzXaxyM52Cy6jwDzZMawbNKt9xt/S4MDCCwyrAM4XuQDRCu5RKCXl7hKPnbrnbWAvzKqhRihuesnKsJG3kmmlhbrww+d+lvMf0Wzu7yANWGgSnv1hSgn6jFImFDg6wGhCNIFm4lOA3XY+UEkZhd+/u4JTGnh+uNAkUP1CzXCi/me4xndcJzw2cnVr3aTwUkChyyFLSg2cK3YFohHYJSwm5RcLHXzzw7Stn7Uqm0XvRbaKw7n5ZKI4TISX4jxlp7Vx2wL70QK2KJSXoN0q9u9rb1GjRUsKTneHpT785cvb6ayevZCmbyGafGD2QAZqEUhkkxEOyhPwS5kS1cySE0oNnCt2BaIR2CUsJh6YDN+RIxwTLiHGkVD+nC5RKudHP0+3xUC4llB2zrKOlc0BHcUjVK8E7KJe3j26ggcmYBUoJF24+euPDa4ffuWilbGG2KnxMgPmgVAYJ8ZAwzX4x8L00EELpwTOF7kA0QrtYEXj03K3CfFqOBFlslo/vUGwgDzWXlDDB1BPakRKcAyIliL4eemuTnEVJCRduPnrl+KVCPnj9g80f/XyzmM1WLUhNWNyD72lImT2x04dSGSTEA9SEEEoPnil0B6IR2mWOCLzxcPv9zXvucu/4SG5lXqlTebpD+KSE0DHnbpWwih0cOiolPNkZWu0RXn57M1tutU1YRE+HqAr/XCOLzCklLH8Uk2WecWnnij4RpTJIiAeoCSGUHjxT6A5EI7RLgxFoOhW6JoaGRWLRFsAdF8qWEswBpsuPOZ+UsKq2i14pYbbGss9es2ypFiIlnP70G6tTgyslZCnbrPwXVwQpASmBUhkKiAeoCSGUHtYz3d7b/8t//sztjGmlO4+2W7xmSBVyGGiXZqWEfAhF1Z9POiRb3fCthWrnh9LBIK1d5pASjOPlYySurJRg3vawP/hCpIQ3P7oeIyUcOXvd++vMHxgeqtQ7CqgWYu4gpSM9koNHdok+10IJD8Fq/ZNPxwpVrk+/IfJ2bGm/zvM/HXle31O2T2TM29dOqQwS4gFqQgilh/VMv328k72QPN0ZFulJlrb38vR4kp5OGlFe+F9snqBhyGGgXZqWEro6ChUsjIVICa+dvBIjJWSbmUcKSQmHPEOVBpqjiCHaTb9J9zxah5BKDV0iz7UM/KPOTX6EOeianJPCintDtKFfnTup34TI8waesu82ulIjpTJIiAeoCSGUHtYzvTuREvbL9vr3z779wfFL/3i+sdaUq+Zk1Ecaf4NzD0gOA+2yMlKC+x2S/LcZFi4l/PDdyy+/vfl0Z29UU0qIG6rUa5LhfJ3XDT1mZ60xvqj3XEshLCUYjQDU7keeG6I29An8OrEq7rxBXw/1RFqbJUplkBAPUBNCKD3mkBJyHSHb7O//48b8J+72iza4ICVA8qyMlACLYiFSwpGz4w4Oaycu5Y0RMrKJ1z/YrNnBQdmybBRQ2eJer94rKpVecy7tM1N+ruUQlBI8a8Sc74ZoQ7+6v069CVHnDTxlbZ2v8xOlMkiIB6gJIZQetpTwXYmUUOgIfzv4qrTxQghetPsGUgIkDxEINVmU7eLPfvW7e9/tZNM/PvNbn4mRY7tYXUpwmgrYvSJ88oF3iAtxhgpSQty5lkMDUkKoI4ehJzguq+rJFiEl+FxUyBNBQjxATQih9PBJCY+3h64bgtQRbj/asaUEj0OQtcY2+TGbPlqlrm1Erh4dlkLYqMv4duJ3mJOrkBKgaxCBUJNFDQb5019+/pNfhCyRtcEgnUqmr4OD2oHf2jJgSynP46uSVhpfNPJcy6GmlBB0Op1gDOJi3sny0UnDUoL+lJ2dTB8LA/JEkATiIct/Tn/6zZGz1187eSVL2UQ2u4gRaqHXkKWkhyolDPdHf/Uvn7964vJ/ffmgWFXoCH83+OrxzvDLb5/dfbwjD+VzCLJmNrSvIp5uhebY6KWfPWCRBCycTD+n2FVICdA1iECoyUKkhIwLNx+9MimA1ZStyjZwjiQzXMPn0DQ9dPwQVXNEV9gPeAbITH9d1GwjbRejz7UMvF4EVar07g3Rhn41zuW/CVXOqz9l80f5hQTyRDDxxUOW/7zx4TVV4tSyJlhdyFLSwycl/M2/bmUTr564/JuvxmqCbI+Qrd3e28+mbweGhDS0Aa3gj2mT5xlbfe4BqaEOfgsntamk+uDCbWzJYaBliECoyaKkhNGcL+tFG0BjQM9BaKhS7yigRps0R/W3q61KI8IK44vGn2vxeIdgjazSj9QborezNM7luwlVOjiUPeX1gWLmwGCQ4CFG6Hz9g80f/XyzTOjsEO1WKUypMX3IUtLD18Fhe2//r6dqwtv/eVPqCBnbu2Mp4Y4jJSgOQYGOk2VtBo0Kaaisg2UQ37s2ahVSAnQPIhBqskApYTRtQvzmR3WbEONVtAo08pTJE0Gidr+yJE53qFqt+9VimCvo55QS5v4HW2b+u7RzRZ+ILCU9rGf6e2G7WKgJeSp0hIznu0NHSvA4BFWXEqYzgZGroAWQEiB5iECoyWKlhKbokpQQ/igO84OUAI2jmsJa7aRcKUEzhV0MSAltnQspYYUJSAkjoSZIHSHj2URK+P13QkrwOQT5LIdKW+gNrHaVnXnxWVXijbpmwRBYhZQA3YMIhJogJUBXQEqAxnHj4c2PrsdICc5QtWMsS/bpG6Lh8hHuCSQXG6qk2y3LtX2dLh6EpYToc8Xg7ui0yp51SpoOo6ucRv9d8ldtaRfpscePPO/A475un8jVh+kzlTSqlCBVg+29/Y8u3hmaozU83cmlBGG7GHQI0m0XPU5GB7MZlr+wZuQES6PEqMv0VoxchZQAncKKwCz3+8t/Drnm58nt6gUrSz+kBIBIiEaQuPHw2skrMVJCtpl1KM2SffKOuDZ7wfc5rvts3q33St/uFSxgo89VgWAHb9tNRc6pn1fVz3qDDdVYxfdbIs878Luv++6G+0GRLCU9VK+EZ7vD57vDZ9P0dGecnuRpey+bvn7nSbaZM4KDzyZJKlRrRhhrqtx0BzsoPUZOsCSCFk6BkUC9q5ASoGtYEfjt43F+mGeAs2xwey9Pjyfp6aQHqDt0LqwmSAmQFEQjSMJSwg/fvfzy25tPd/ZG5VKC2nHZqnjGOa57rVB9u2s1jsiWBX7b1QqEpQRzMBztk6vnd6m3J3CRpkVrxHkD7uueE2lNyslS0sN6ps92h3/+D1deeefiD45n6dIfb1z6k41Lr5649KfvXl5793KWS/zZe+OUZQt/cerq9u5+4MgAVSGHgXaxpdXHRocvH/kAN/94vsmuoKtm6rwcGm/XP58eipQAvYFoBIkbD0fOjjs4rJ24lDdGyMgmXv9g83C4g4NefTdrw0HHdcXmfaR84ld2d6rcpV4J5eeqRITtfGjOe1sOLtP4Kc5Fqr8l6rwByzT9buh908lS0sN9psP9ffkVLk/Pdu00REaApiGHgXaZQ0ooBsr9+/+4seCrg7ogJQBUg2gEiWq7+LNf/e7epMPzj8/81tcP0LZdjJUS1Cq+x+bdnfa5vleQEuLOVYkGpITScXRFnwSjmYb+WxYhJfhM7shS0oNnCt2BaIR28Q2O66PQEf528BXiavdBSgCoBtEIEnUwyJ/+8vOf/CLkKqQMBqlXNH0G7tFbySw5tHt0B4fIc1WippRQbkQvtrBviP5b4qUE3X3d2Untpp5DlpIePFPoDkQjtItPSni8PXTdEKSOcPvRjiUlxDoxhwyVZ95G64NiO4xi5sfnP51jNPz0e8HIVUgJkDhEI0jUeLhw89Erk7JQTdmqbAP3UJolu90+QHdc99u8K53+NcP2CraL0eeqgNeLoEqV3v1dg3VpyygcJjW3RsceP/q8uvu6+aP8QgJZSorwTKE7EI3QLqqUMNwf/dW/fP7qicv/9eWDYlWhI/zd4KvHO8Mvv31m2dBGOzF7DZXVIj9UQkMZAf9p04w6dhVSAiQO0QgSXzxcuPnojQ+vqe0RVB0hx7FkV7oaqI7rfpt3w9Hdt7uhDudCfWmPgYhzReO1nY+s0uu/KzxspnRTcH5LlQ4OPvf12YkUMwcGg0wanil0B6IR2sUnJfzNv25lE6+euPybr8ZqgmyPkK3d3tvPpm+bQ0JGOiKPrH2Ukt1szVhqEAV+/P7Taj/PfNPAKqQESB2iESSBeHiyMzz96TdvfnT9tZNXsnTk7PVs1u7XAH2mkS6CZCnpwTOF7kA0Qrv4Ojhs7+3/9VRNePs/b0odIWN7dywl3HGkhMivC2WGynG9RyECr2mU0lI1YhVSAiQP0QiSpOMh/DUdkBJAJ3+mJFJ3Utv/E7C6WBH4e2G7WKgJeSp0hIznu8N5pYQYQ2WkhMboq5Qgl1y5+7TIK7PpYu0LG1dfPLnZ2Qw03JqmcT/MlcXsRF1pL7thdA6lMkiIh1UGKQFUWq83kkhWavt/AlYXKwJ/b47gUKgJUkfIeDaREn7/XXUpIcpQGSmhMbz+0+5dLe56YNVypIRs+q1Pvi6WZBP3n++NpppCsdnucP/B871lZKBzvU4iJXQIpVmU4tGWQ6kMEuIBakIIAQBAqqhSglQNtvf2P7p4Z2iO1vB0J5cSbNvFaoM6eQ2VkRIaI+A/bVtir8WuWriUcOPhdr7Q2uy+KRzsDPeX9H6GlNB3HOs4M38xnhPv/SAhHqAmhBAAAKSKVcblXgnPdofPd4fPpunpzjg9ydP2XjZ9/c6TbDN3BIcYr4QIQ2WkhMYI+k/7xuUMrVqeV4K65Nj528X0S6euHb981z2avPSimcXUY/vgBoSdvy0PD7cbsb672Wx+ECEluKN0Wh/J8+AP3DooHUXWeYJICVAB4gFqQggBAECqWGXcs93hn//DlVfeufiD41m69Mcbl/5k49KrJy796buX1969/MN3L//Ze+N0+J2Lf3Hq6vbufuDIsCIsQ0rI2yMcPXfL3cZaaA1qWYzcvra2bnyV1kZK941TqjSP13avMHJ7YJTOwPdz0IgaRdZSwKynRgcH8EM8QE0IIQAASBW3jBvu7+fNEGR6tmunITICTFi4lJBbJHz8xQPfvmJOsYx02rVY1UpPdd079Llvd7u9hnop3rXqKJ0oCRFEjSKrjm/qMaznvR8kxAPUhBACAIBUoYyDmixcSjg0HbghRzomWEaMnuq7WSNXhj8zfSHcjh2WrKDu7lT7K3olKINkoCTEENUzymnrYfZVoYMDeCEeoCaEEAAApAplHNSkeSnh6LlbxfA2ciTIYrN8fIdig9mBYqUEtYLuHafUkRK03Z3lc0sJ00mUhCgqSwn+BiE55IkgIR6gJoQQAACkCmUc1GRRrRLC3Hi4/f7mPXupbtEZZ+MZ2EpWREO71+jgYMwXZpkoCeUgJcBCCcTDk53h6U+/OXL2+msnr2Qpm8hms4VLvkLoOGQpAACQKpRxUJN2pAQfxjiWwnbRrrbLPg3rJeOUWpVPffe5bBfVUTrz+bU1lIQoYqUEQ6mxOjgYGhB5Ikh88XDh5qM3Prx2+J2LVsoWZquWf53QWchSAAAgVSjjoCbdkhJGhpuB13NAOh4YDQ6KRW7veqvqr4wGKZwW8jEJSzo4eEfpZATUeOJGkbWeoOcBTiBPBIkaDxduPnrl+KVCPnj9g80f/XyzmM1WLUhNWFyvp2X2pzLV2PQhSwEAgFShjIOadE5KSAHHSgGWBtEIEjcenuwMrfYIL7+9mS232iYsoqdDVIV/rtxjTikh8lzLzNCWdq7oE5GlAABAqlDGQU2QEsIoQz6UvbHTJqFNko5GqIwbD6c//cbq1OBKCVnKNmv8YpASykFKAAAAWBaUcVATpIQmORAeVqjxb+cgGkHixsObH12PkRKOnL1uHsmseoq6e77C6GBl7lYsN8xY5dC10hXE0SzFho41rHpkl+hzubibOcPjzLp6TQfWVQ6q/wr5G7a0S9KuPP68vkdjn8hVjMW1k6UAAECq4E4NNUFKgKQgGkHixkNWHMZICdlm5pFCUoKopU7qraojq2nWOnN8NXdRzqM5yFayiY08lxdzM3tAlencQY1dzkk1xP0VhrXqhjJci//KI88beDS+3+42KiNLAQCAVMGdGmqClABJQTSCJCwl/PDdyy+/vfl0Z29UU0rQxye1a6veIWadD/1bygp51ugjVzhX3C6hsVmduYPtPL9C7ZURuCSxKu68waFj1RNpvdPIUgAAIFU65U7dFMv0onbBnVrZpv4hAJYD0QgSNx6OnB13cFg7cSlvjJCRTWTFZM0ODsqWTlFmLZCN9/XqvWLVolfCS0vN8nMFCEoJnjVizvcrphdlXLhzSeqVR5038Gj0367b3JClAABAqnTKnVqhgwZSDe7Y5XM1aimFlAC9gWgEiWq7+LNf/e7edzvZ9I/P/NZtvOexXawuJThNBexeET75wPPR3zhDBSkh7lwBGpASQr0vDD3BbpShX/kipASfXy5ZCgAApEqn3KkVkBLaOhdSAqwmRCNIVLn9p7/8/Ce/+MwnInjkdqe+6uvgoHoBWFuapZxtJVBM+2q3gSO7RJ4rQE0poXxMG7GF/fP1K4+XEvRH4/52w3zCgCwFAABSpTl36jGyIWHxJrQ+MCyddBvmnnhRu7g7Oq9JuFMjJUB/IBpBEtMJ0EqeToDStM8oFE3TQ8cPUTVHlNXiPAsP2A/IUR/WRS4fabsYfS4vXi+CKlV691cM1uWLgSLM+K+8ynn1R2P+KL+QQJYCAADp0pw7te23vFF8VFkrHJS9ZtJ98qJ2CX5xwZ16hJQAPYJoBEmj1sSFKrs+sDs4zKRfr8ps7DQyNGAjv56uMTN6R3H2Htkl/lwlB9Dl9vIqvf4rwh8mpJuCc+VVOjiUPZrp55I6cjsAAEAfadSd2n2bsCqeVvXU8/Lifc/w7W7XeiM/lATPVYWwlIA7NVIC9AiiESSlAya/+VHdAZOX2UUOKtHIoyFLAQCAVGnMnVqvvpu1YUW5l00We+JF7VKzH6j3tqTjTo2UAL2BaATJEuKhS1JC+Pv6yoGUAAAAEKAxd+pYKcE3JnZ/vKjVQ9aVEhJ3p64sJcglV+4+zWezlE0Xa1/YuPriyc3GX9EWN5Ro+Mhdqk70CbMTdaW9TClxCu/9IFkxKQEMkBIAAAACNOZOrVc0A87PcVvJgrwjXtQuNaWEFXCnriYlZNNvffJ1sSSbuP983Mcm1xSKzXaH+w+e77UjJcwVK0gJreF6rvjM83nvBxPiAWpCCAEAQKo0505tfh0Utot2XdW1Ye6XF7X+y3GnDlFNSrjxcDtfaG123xQOdob7i3g/Q0pIEOPmuhKc8VR47wcJ8QA1IYQAACBVGnWnlt0sZx/crcqTYsPcMy9q/yFxp/Ywj1eCuuTY+dvF9Eunrh2/fNfcxP36LD3SlXEvi92K5cZQokscpNR3hZbCletHvoOsIOKR58+7uIWzhjzm80JKgAoQD1ATQggAAFJlCe7U0FmW1g+0rpSQt0c4eu6Wu425MCQliOq5MySmp03LMgcp9V5h4Is6OFKCoSD4Oi9Zz4gODuCHeICaEEIAAJAqSZdxeFGX0A8pIbdI+PiLB759xVxQStDHvbRvQsgcVK+aWkeYc5DSqCtESXCw7o6uuqgmop4sIek8ESpDPEBNCCEAAEgVyrhVph9SQjFwQ450TLCMGEs7OChblg0lurRBSgPDaRgOnSgJJl6hxetDajQwMVubjCFPBAnxADUhhAAAIFUo46AmzUsJR8/dkqM/FtPFZvn4DnJ4yCnVpQSnqYDdK8InH5TadYaOrBAxMidKgkJlKcHf/COHPBEkxAPUhBACAIBUoYyDmiyqVUKYGw+339+85yx2vSw9HRyK+cBQosscpDQ8MufMIBMlwQYpARYK8QA1IYQAACBVKOOgJu1ICR5kc3XD5zAw7qXXHHGZg5SGR+bM68JrKAkKsVKCObSp2cHBUHzIE0FCPEBNCCEAAEgVyjioSaekhJGwLjBGBY0a99LeaamDlAav0N/2YeWJkhLs5+V5XBPIE0HixoNcIntg5Z2t8ukXNq6+eHKzs4FUsbPVamFKw5X2UnMUshQAAEgWyjioSdekBJ3evxz3/gf0BvJEkFjxkE3nXi3F7P3neyPHAnZ3uP9AGMQukLlyBqSEuri2PIwvCwAAqwdlHNQEKaEqcwxSSpuE5UGeCBIrHm483B7ZY9COuW8KBzvD/SVFEVJCKziN1Mz2UAwKAwAAKwFlHNQEKWGxHAgPuCQsC/JEkISHqpVLjp2/XUy/dOra8ct33aPJwWUL39f1geGUIrbRO0sZHiCOHqnvbrbAD1u45rml0b2rOII1UO7aRuDW9RSnz1RxJ2aj85q3HSkBAABWlEAZ92RnePrTb46cvf7ayStZyiay2Wzhkq8QOk4/pASASIhGkJRKCXl7hKPnbrnbWAtlM/hsZqMYQmZt3fjArdm7ztxczcMoLe213eewgDUsZ/ONA5/iE8KSEgwFQR3EZxQcLYgsBQAA0sVXxl24+eiND68dfueilbKF2arlXyd0FqQESAqiESRhKSG3SPj4iwe+fcWcOhqs1XfJqqF6quvW4KazPXy7262yqg1MO7tGr8lpSlg/UhdPnHZus0Yczl0hSwEAgFRRy7gLNx+9cvxSIR+8/sHmj36+WcxmqxakJizu3WSZbz3z2T/3F6QESAqiESRhKaEYuCFHOiZYRoye6rtZNik+KnKY2VkXB11K8O3uFIAVvRJmC4qpdJWE6PFlrQF9jA4mdHAAAICVwC3jnuwMrfYIL7+9mS232iYsoqdD1MvJAkym6p5rmf3wl3au6BMhJUBSEI0gseLh6LlbcvTHYrrYLB/fQQ4PeUCslKCWVBORwCcfaD0anL2bkRKmkwkrCdWlBH8rjhyyFAAASBW3jDv96TdWpwZXSshStlnjF4OUUA5SAsBCIRpBMkc83Hi4/f7mPXupPgyLv7IauZXMqUO71+jgYMxPzhe2bew5SAkAAACRuGXcmx9dj5ESjpy9bh7JNX+amRCpbtDFbrqr9BL9quPP5eJu5nwwGhh9KD09KvVfIX/DlnZJ2pXHnzdk1C1P5DabFdeOlABJQTSCpMF4MDq/CdtFu9oui8H1ojuBagVo12P13eeyXRSuALbD4NpawkpCtJRgyCvWG4nxLkKWAgAAqeKWca+dvBIjJWSbmUcKSQmHVDfo4OvNMv2qI8/lxdzM6bp6MHdQY5dz8t3D/RXGe8uG1kPTe+WR5w08Gt9vdz97ISVAUhCNIGk2HoQs6/UckNKt0eCgWOR21D9kZ+uOvixk53x4w5IODgO5vbHa1/YhFaKkBPu2e+76BLIUAABIlbCU8MN3L7/89ubTnb1RTSmh1A1a3VI99gL8quPOFbdLqOGjM2c7WZm/Qn3bC1yS2Z814rzBdpnqibR3yOalhO29/b/858/c4UOsdOfRdviwAHPAez9IiAebZfboSwJCCAAAUsUt446cHXdwWDtxKW+MkJFNvP7B5uF6HRyULctcpZfmVx11rgBBKcE7zlcx5zXtPrgo48KdS1KvPOq8Ue5a9k1y70fzUsK3j3eyCHu6MyzSkyxt7+Xp8SQ9ndh+XvhfBiaFhuG9HyRJx4NS+JRp7qm3SVgASYcQAACsNKrt4s9+9bt73+1k0z8+81vfJ2HHdrG6lBBylV6mX3XcuQI0ICWEel8YeoLdKEO/8kVICb43yOalhLsTKWE/vM9o9O+fffuD45f+8Xxj/p9mN2PoIo1/EHUPyHs/SIiHggPhgTyyIoQQAACkijoY5E9/+flPfhFqYK4NBunUV30dHFQvAGvLZfpVR54rQE0pofwrj9jC/vkRY14HpQSvUbf1223rrRntSAm5jpBt9vf/cSN88BC01O0bSAmwZIgHqAkhBAAAqaKWcRduPnplUk1TU7Yq28A5kjTtM3wOTdNDxw9RNUdcpl919Lm8eL0IqlTp3V8xWJe2jIow47/yKuf1GHUbP8ovJCxESviuREoodIS/HXxV2nghBFJC30BKgCVDPEBNCCEAAEgVXxl34eajNz68prZH0HSEnKLfpWEQPQi5QXtdpZfpVx1/rpID6INBllfp9V+hjw9pnMt35VU6OJQ9mvVBuD/tAqWEx9tD1w1B6gi3H+3YUoJneExrjT3CpfnkLAnJlWyUo8NSGASHljWMQ8x/Wt8qpAQIQzxATQghAABIlUAZ92RnePrTb9786PprJ69k6cjZ69ms06+hHL78dpZGHs2ipITh/uiv/uXzV09c/q8vHxSrCh3h7wZfPd4Zfvnts7uPd+ShfMNjWjMbmo/HbM7Rk9zGMrFNVqBRBv7xS83BTGNXISVAGOIBakIIAQBAqiyhjOuSlDCHX3XKdF1K+Jt/3comXj1x+TdfjdUE2R4hW7u9t59N3w4MCWloA9qTjjGknCkJ1u0qHRYEmsd+kP6hZf0PLuwKy3s/GBAPUBNCCAAAUmXFpAQw6LSUsD8aiwV/PVUT3v7Pm1JHyNjeHUsJdxwpQRkeMzDUR5lhplEhRYhqG++gI8ojjliFlABlEA9QE0IIAABShTIOatK8lPB7YbtYqAl5KnSEjOe7Q0dK8AyPWV1KmM54HC+hJZASYMkQD1ATQggAAFKFMg5qslgpYSTUBKkjZDybSAm//05ICb7hMX3jbZbaUw4sJ1Da17RM/NCys2AIrEJKgDKIB6gJIQQAAKlCGQc1WZSUIFWD7b39jy7eGZqjNTzdyaUEYbsYHB5Tt130DON5MJthLlGHHoWlUTK0rOmtGLkKKQECEA9QE0IIAABShTIOarIor4Rnu8Pnu8Nn0/R0Z5ye5Gl7L5u+fudJtpkzgoNvYE/pdVAs9Q7jOd3BbobgGXoUlkRw/NLASKDeVUgJEMaNB7nkyt2n+WyWsuli7QsbV188udl4IC3O6zV85JVyPDKVx0p76QUDWQoAAKQKZRzUpHkp4dnu8M//4cor71z8wfEsXfrjjUt/snHp1ROX/vTdy2vvXv7hu5f/7L1xOvzOxb84dXV7dz9wZICqkCeCxIqHbPqtT74ulmQT95/vjaaaQrHZ7nD/wfO9dqSEuer9SAnVMO+IHGDW9WYhSwEAgFShjIOaNC8lZAz39/NmCDI927XTEBkBmoY8ESRWPNx4uJ0vtDa7bwoHO8P9RUQRUkJXMO6Ia9Jj3EqyFAAASBXKOKjJQqQEgLYgGkGixoO65Nj528X0S6euHb9819zE/ZBteH8anbPM3Yrl0gdW7bRjDFkrHWO1Q3uP7OC7QusLfG5D4jtIXxDPKX9Ixe+eDfti3mSkBAAAWFEo46AmSAmQFEQjSEqlhLw9wtFzt9xtzIUhKUFUz2VjecVZVAgE64bnS1F7dc9jHEGc1HNkF+8VBj7O9xZLSjAUBJ9fq3Vj6eAAAACrAWUc1AQpAZKCaARJWErILRI+/uKBb18xF5QSZOVzVvvXrGDVyrrc0NjJOkJx1ugjx19hIkqC/ZN0qcTp8jFrsuHcA7IUAABIlU65UzcFvT4DtOJOjZQAvYFoBElYSiiKxhzpmGAZMZZ2cFC2dIoya4Hs4qBLCUZbfG+TfPfIFt4rFFOpKAl+dUQKC05zDLM7CR0cAABgJeiUO7UCBlKt0LQ7NVIC9AaiESRWPBw9d0vq68V0sVlegkoBfkp1KcHJbu1eET75QOvRYBA6skJASphOJqMkVJcS/G02cshSAAAgVTrlTq2AlNAKTbtTR0kJJFJ30nz/OJAec8RDVo6+v3nPWWwWPYHe9cW8XScVW/orucZ5nCNoO2jX4Fy6foXF+cK2jb0CKQEAACAStYxTl5S5U4+RzS2LN6H1gWHppJtJ40W9LFpxp0ZKIPUszfffBenRXDzYzbv0GdcPUTVHlNVVwxzQLsrMLm0zr8Y5bBfVK8zn19aSURKipQRDTLHeUYy3E7IUAABIFbWMk0ui3ant7oIbxUeVtXXjA7f2woMX9dJoxZ26REoAAOgmjdYDC6E213BlB4fBTCV3eh5oO40MOdztum9V/cMCvnlk9br9V+hv+9BPoqQE+yZ77vEEpAQAAEiVsJRQ0Z3afROx3jB8ZtImeFEvklbcqZESAKCXLKEe2PtOd73/AYsFKQEAAFIlLCUcinen1qvvZo3cZyZdbOqq+nhRN00r7tRICQDQS1ZMSlCK2bKiMK02CQsAKQEAAFLFKuPmd6eOlRJ8Y2LjRb0kWrGUQkoAgF6yYlJCNQ6Eh1RLy4ZASgAAgFSZo4zT3an1DxOBnoZxW+FF3TRICQAAsVAPhJoQQgAAkCoNlnGWiXFhu2hX210zabyol0gr7tRICQDQS6gHQk0IIQAASJVmyzjRzdLrOaAaHeNFvTRacadGSgCAXkI9EGpCCAEAQKpQxtn0t9tqSyAlAECyUEZCTQghAABIlaTLOLyolwFSAgAkS9JlJCwDQggAAFKFMq4AL+r5QEoAgGShjISaEEIAAJAqlHFQE6QEAEgWykioCSEEAACpQhkHNUFKAIBksTK47b39v/znzw6/czGc7jzabvGaoVPwmgUAAKlCGQc1QUoAgGSxMrhvH+8cfufi051hkZ5kaXsvT48nKVuYbXnhfx+1d9XQIXjNAgCAVKGMg5ogJQBAslgZ3N2JlLBftte/f/btD45f+sfz3zR1GRMvH5x8mqfxMZvcA/KaBQAAqUIZBzVBSgCAZJlDSsh1hGyzv/+PG/OfmHGJlwJSAgAAwNxQxkFNkBIAIFlsKeG7Eimh0BH+dvBVaeOFEEgJSwEpAQAAYG4o46AmSAkAkCw+KeHx9tB1Q5A6wu1HO7aUsLWxdmiKWd2Ua9YH06GJD80GKC4qqONVoqPDeMfpocRBECFiyW/s7Nb5n4vVv8S3CikBAABWB8o4qAlSAgAkiyolDPdHf/Uvn7964vJ/ffmgWFXoCH83+OrxzvDLb5/dfbwjD7W1sT6tY07qodP6pzWzkU+ZVdLZnLF8vGu+p9QUbL0B/OSqjaHGqM8lehVSAgAArA6UcVATpAQASBaflPA3/7qVTbx64vJvvhqrCbI9QrZ2e28/m74dGBLS0Aa0er9PSpCTMyXBqsDOVkAY++7PJBlHE/DebeN+IyUAAMDq4JZxcsmVu0/z2Sxl08XaFzauvnhys/HCcXFvP+Ejr1Sf1PmMwGftbZ07hZQAAMni6+Cwvbf/11M14e3/vCl1hIzt3bGUcMeREoxW8WqPhQKvlDCbNuq2DkgJMTjF/3SB8lwiViElAADAKmGVcdn0W598XSzJJu4/3xtNNYVis93h/oPne+1ICXPV+5ESqmHeEdl6032HQkoAgGSxMrjfC9vFQk3IU6EjZDzfHTpSwqS67+oB1aWE6Yz5KRzpYC6QEgAAAObGKuNuPNzOF1qb3TeFg53h/iJKRqSEruDpjevOjZASACBhAlLCSKgJUkfIeDaREn7/nZAS3Ix01rRAK4ACUkI+NxAH9B0EyrBlgWLevaXFEwysQkoAAIBVQi3j1CXHzt8upl86de345bvmJu6HbKNg9Rkky5bz8s1I9bp2ba3NDY1De4/s4LtC1Srbd5C+4PSzLX636Lhr3GSkBABYVVQpQaoG23v7H128MzRHa3i6k0sJwnbRHWvBKNg020WR1VoV1PFshrnEMAJcR1iIIi/whGeiaV5pvpJErkJKAACAFaFUSsjbIxw9d8vdxlwYkhJ8BslusS3ep3Sva+U8mmt14Mgu3isMfJzvLZaUYCgIvpch68bSwQEAVgTVK+HZ7vD57vDZND3dGacnedrey6av33mSbeaM4CDkaqeZgaOITzc3B4MUO9jNEKQMTBOFSIoGHqrDhH/4Tu8qpAQAAFgdwlJCbpHw8RcPnP2MzSYEpYQ4g2Rvd0/Vcco96eys0UeOv8JElAT7J+lSiepP7bHyQkoAgGSxMrhnu8M//4crr7xz8QfHs3Tpjzcu/cnGpVdPXPrTdy+vvXv5h+9e/rP3xunwOxf/4tTV7d39wJFhRUBKAACAVAlLCcXADTnSMcEyYizt4KBs6VTOrQWK1/XIkRUc3Cb57pEtvFeoWmX3HK86IoUFpzmGZzjtMUgJAJAsbgY33N/PmyHI9GzXTkNkBJiAlAAAAKlilXFHz92Soz8W08Vm+fgOcnjIKdWlBKepgN0rwicfaD0aDEJHVghICYpVds+pLCX422zkICUAQLJQD4SaEEIAAJAqc5RxNx5uv795z1ns9vz0dHDwGyTPtvRXco3z+FyrA0fW8F5hcb6wbWOvQEoAAIiFeiDUhBACAIBUaa6Mky3fDZ/DEoNk1RzR73Xt2lqrrtVz2C6qVziaWmWnoiRESwmGmGJ1cDBkGqQEAEgW6oFQE0IIAABSpdEyrrAuyEcYlB0cfAbJW3K5rNr6va4NW2t5VtNH2Xtk9boDFs6JjdgdJSXYNznkDI6UAADJQj0QakIIAQBAqiyhjHOHRuoZvf8BiwUpAQCShXog1IQQAgCAVFkxKUEZ8qGs40JabRIWAFICACSLZT5MIs2X2g5kAACA5llCGdclKaEaB8JDKi4JCyImhJASAKCXtF4FJaWR2g5kAACA5qGMg5rEhBBSAgAAAAAAQDogJUBNkBIAAAAAAABWC6QEqAlSAgAAAAAAwGqBlAA1QUoAAAAAAABYLZASoCZICQAAAAAAAKsFUgLUBCkBAAAAAABgtUBKgJogJQAAAAAAAKwWVj1we2//L//5s8PvXAynO4+2W7xm6BRICQAAAAAAAKuFVQ/89vHO4XcuPt0ZFulJlrb38vR4krKF2ZYX/vdRe1cNHQIpAQAAAAAAYLWw6oF3J1LCftle//7Ztz84fukfz3/T1GUM1g8dOrQ+aOpwMCW7sWsbWws9IFICAAAAAADAajGHlJDrCNlmf/8fN+Y/ceN1XNBASgAAAAAAAICGsaWE70qkhEJH+NvBV6WNF0IgJSwFpAQAAAAAAABoGJ+U8Hh76LohSB3h9qMdW0rY2lg7NMWsbso164O8O4OYFxXU8SrR0WG84/RQ4iCIELHkN3Z26/zPxepf4luFlAAAAAAAALDqqFLCcH/0V//y+asnLv/Xlw+KVYWO8HeDrx7vDL/89tndxzvyUFsb69M65qQeOq1/WjMb+ZRZJZ3NGcvHu+Z7Sk3B1hvAT67aGGqM+lyiVyElAAAAAAAArDo+KeFv/nUrm3j1xOXffDVWE2R7hGzt9t5+Nn07MCSkoQ1o9X6flCAnZ0qCVYGdrYAw9t2fSTKOJuC928b9RkoAAAAAAABYdXwdHLb39v96qia8/Z83pY6Qsb07lhLuOFKC0Spe7bFQ4JUSZtNG3dYBKSEGp+Y/XaA8l4hVSAkAAAAAAABg1QN/L2wXCzUhT4WOkPF8d+hICZPqvqsHVJcSpjPmp3Ckg7lASgAAAAAAAICGCUgJI6EmSB0h49lESvj9d0JKMPsczNrRGyYHgoCUkM8NxAF9B4EybFmgmHdvafEEA6uQEgAAAAAAAECVEqRqsL23/9HFO0NztIanO7mUIGwX3bEWhPmBbrso6rhWBXU8m2EuMYwA1xEWosi7hgjPRNO80vRWjFyFlAAAAAAAALDSqF4Jz3aHz3eHz6bp6c44PcnT9l42ff3Ok2wzZwQHMeKg08zAGcdxurk5GKTYwW6GIA0TaKIQSdHAo3TER+uW+lYhJQAAAAAAAKw6Vj3w2e7wz//hyivvXPzB8Sxd+uONS3+ycenVE5f+9N3La+9e/uG7l//svXE6/M7Fvzh1dXt3P3BkWBGQEgAAAAAAAFYLtx443N/PmyHI9GzXTkNkBJiAlAAAAAAAALBaxNQDAQIgJQAAAAAAAKwWSAlQE6QEAAAAAACA1QIpAWqClAAAAAAAALBaICVATZASAAAAAAAAVgukBKgJUgIAwP9n735+JDny+v+PwRdLXCz/A77sX2AvLL1YHDittNxAyHMBIdQHBNo/AJD/AEt2jW0+noX9WgZbggMCWUiFOLHLSrZle8YzGnu0qLGtNSvPrD3SemY8v3q6u75ZlZWZ8eP9jorsiqjMqHo+lGp1ZWZlZVVFZVa8KjICAABgtxAlYE1ECQAAAACwW4gSsCaiBAAAAADYLUQJWBNRAgAAAADsFqce+ODo5A//4eOnXvggPF2/9WDAfcaoECUAAAAAwG5x6oE3vjl86oUP7h4et9OdanpwVE/fLKZqZrXm+/93a7i9xogQJQAAAADAbnHqgV8uooSTVff6949vfPvFC3/3zherVjyY7J3Zn665jzi96f6ZvclB1g0SJQAAAADAbjlFlFDnCNVqf/Mfn63aPFHCwIgSAAAAAACJuVHC7RVRQpsj/NX005WNF4gSBkeUAAAAAABITIsSvnlw7PeGYOYI124d+lHCPDloLBKEOkpoZ1uVUHNlK2+oaqtn3PWNlduZoY2jVtf8u1fPfpHUt0BfRJQAAAAAALtOjBKOT2Z/+s8/+865i//9ydftojZH+Ovpp98cHn9y496X3xyam1pUPptK58Fk0kQJbf11HhE01VBrZfPW/N9mpemk/sect9hKt6q4cbTqWEZ81dW3ILiIKAEAAAAAdp0WJfzlvx5U/3zn3MWffjpPE8z2CNXSB0cn1f/XrCEhuyq+wQoBjMsdvAppu0i4JMJZ2VpV2jg67rvSvWb6WxBaRJQAAAAAADtPu8DhwdHJXzRpwvP/9bmZI1QePJxHCdfNKEFMEpz6fVuPFVZuq6jLlvXd4u56B6fFvbJxGLyafzMj8BaE3h2iBAAAAADYeU498JdGt4ttmlBPbY5Quf/wOFuU0K7ZJAbylvWNw0CUAAAAAABILBAlzIw0wcwRKvcWUcIvbxtRglyTV2r7/srC5QnNSmpGQJSwmhsLtLcDb0Hw3SFKAAAAAIBdJ0YJZmrw4OjkjQ+uH9ujNdw9rKMEq9vFxYUIQreLYm3fWtleYPb91167b6283/XGSJQQVl8dYvSZaPdfKb4FqxYRJQAAAADAThP7Srj38Pj+w+N7zXT3cD7dqacHR9X/V6/fqVZzRnCYWd0adB0faLV9c7jB8KiP9pat8QiIEsIWNf9p95rqIz46r522iCgBAAAAAHadUw+89/D4d//2w6df+ODbL1bThd+cXPityYXvnLvw2y9d3Hvp4ndfuvg7L8+np1744PdevfTg4Ulgy9gRRAkAAAAAsFv8euDxyUndDMGc7j10p2NiBCwQJQAAAADAbompBwIBRAkAAAAAsFuIErAmogQAAAAA2C1ECVgTUQIAAAAA7BaiBKyJKAEAAAAAdgtRAtZElAAAAAAAu6WuBzIxrTmtKGabKc0AAAAAgA0YvArKtB3TimK2mdIMAAAAAAC2A1ECAAAAAADogSgBAAAAAAD0QJQAAAAAAAB6IEoAAAAAAAA9ECUAAAAAAIAeiBIAAAAAAEAPRAkAAAAAAKAHogQAAAAAANADUQIAAAAAAOiBKAEAAAAAAPRAlAAAAAAAAHogSgAAAAAAAD0QJQAAAAAAgB6IEgAAAAAAQA9ECQAAAAAAoAeiBAAAAAAA0ANRAgAAAAAA6IEoAQAAAAAA9ECUAAAAAAAAeiBKAAAAAAAAPRAlAAAAAACAHogSAAAAAABAD0QJAAAAAACgB6IEAAAAAADQA1ECAAAAAADogSgBAAAAAAD0QJQAAAAAAAB6IEoAAAAAAAA9ECUAAAAAAIAeiBIAAAAAAEAPRAkAAAAAAKAHogQAAAAAANADUQIAAAAAAOiBKAEAAAAAAPRAlAAAAAAAAHogSgAAAAAAAD0QJQAAAAAAgB6IEgAAAAAAQA9ECQAAAAAAoAeiBAAAAAAA0ANRAgAAAAAA6IEoAQAAAAAA9ECUAAAAAAAAeiBKAAAAAAAAPRAlAAAAAACAHogSAAAAAABAD0QJAAAAAACgB6IEAAAAAADQA1ECAAAAAADogSgBAAAAAAD0QJQAAAAAAAB6IEoAAAAAAAA9ECUAAAAAAIAeiBIAAAAAAEAPRAkAAAAAAKAHogQAAAAAANADUQIAAAAAAOiBKAEAAAAAAPRAlAAAAAAAAHogSgAAAAAAAD0QJQAAAAAAgB6IEgAAAAAAQA9ECQAAAAAAoAeiBAAAAAAA0ANRAgAAAAAA6IEoAQAAAAAA9ECUAAAAAAAAeiBKAAAAAAAAPRAlAAAAAACAHogSAAAAAABAD0QJAAAAAACgB6IEAAAAAADQA1ECAAAAAADogSgBAAAAAAD0QJQAAAAAAAB6IEoAAAAAAAA9ECUAAAAAAIAeiBIAAAAAAEAPRAkAAAAAAKAHogQAAAAAANADUQIAAAAAAOiBKAEAAAAAAPRAlAAAAAAAAHogSgAAAAAAAD0QJQAAAAAAgB6IEgAAAAAAQA9ECQAAAAAAoAeiBAAAAAAA0ANRAgAAAAAA6IEoAQAAAAAA9ECUAAAAAAAAeiBKAAAAAAAAPRAlAAAAAACAHogSAAAAAABAD0QJAAAAAACgB6IEAAAAAADQA1ECAAAAAADogSgBAAAAAAD0QJQAAAAAAAB6IEoAAAAAAAA9ECUAAAAM78yLHzIxMTFtYBr6aIctQZQAAAAwvMFrF0xMTDsyDX20w5YgSgAAABhe8xX/50xMTEyZJqIEJESUAAAAMDyiBCYmptwTUQISIkoAAAAYHlECExNT7okoAQkRJQAAAAyPKIGJiSn3RJSAhIgSAAAAhkeUwMTElHsiSkBCRAkAAADDI0pgYmLKPRElICGiBAAAgOERJTAxMeWeiBKQEFECAADA8IgSdmp67OVL9TsemKrVPr352eC7yrRNE1ECEiJKAAAAGB5Rwu5MMTkC5YEpx0SUgISIEgAAAIZH1XF3psgcgfLAlHwiSkBCg0UJ8cdQJqbANFQBBgAgrea8Nnxlgyn3VL3Rf/bOV87kz6Q8MCWf+P6MhIgSmMqehirAAACk1ZzXhq9sMOWezihRwrM/vR6MEl7fP/PU5KC5efDc3pmz0/r/6dkzS90KB5OnvJk/meyd2Z9W26ks7ivdkWmLJ74/I6GBo4TBP05M5U4cCgEA24SvRrszaVHCqlYJSpQw/6eZP32u/meeI+w9d1CvOc8L6tBhHiXs7Z1drizdkWm7J74/IyGiBKZSJw6FAIBtwlej3Zn6tL407xiIEprmCeKay8YIy3/2Jj9xt8C0MxPfn5EQUQJTqROHQgDANuGr0e5M4hvtz4y+wGEeEFQWYcFi6i5b6LRRQreaf0embZ/4/oyEiBKYSp04FAIAtglfjXZn0qKEr+59FlxN7ythedPsAUFsbuBECd4dmbZ94vszEiJKYCp14lAIANgmfDXanenXJpf8mb1bJQh5QXP9gtkJgreC1AbBvvCBaXsnvj8jIaIEplInDoUAgG3CV6Odmvp3lPDz5fUI+68v/rdGYWjSgS4pmO6bDQ1+Mtmvu2C0owTpjkzbPfH9GQkRJTCVOnEoBABsE74aMUVMdYKwiAmsbheXzJYF0/2uo4Rmvh0ZKHdk2uKJ789IaLxRwmMvX4oJaz+9+dngn0mmQSYOhQCAbUKUwMTElHvi+zMSGmmUEJMjxJxx52PqLpuBrTtN9zec1w7Z0mz9J7vGFmKfOIdCAMA2IUpgYmLKPfH9GQmNNEo47XC77hQVJUzPntmrrx8LTUQJm9oCUQIAYBcRJTAxMeWe+P6MhMYbJfzZO185kz+TKCHTRJQAAMCGESUwMTHlnvj+jIQKixKe/en1lVFC18fM3nNTM0owupZpswOzQ5rlmtJqs6ZuPM8mvEXaXRaD9NS68Xi6LdiD9Bjz64p0XaNedNXrrCw/nL5+4DVR9scJAsx9c6IZbcvxW1CeePektIGOORQCALYJUQITE1Puie/PSKiwKGFlq4R5zbatXdc1+abiejA521SVzaF03FYJ2mp1ndns/3bFls0RfafP1f/Mq83W7i0ryYvqdFNhPnhu0tSo2+q9+byUPVTXD74m8v6YQYC1b/5romw5cgvaE+/GMdIbjHAoBABsE6IEJiam3BPfn5HQeKOEU/WV8Pq+/2u8eIGDGR8ELnAwFrmbMpMC8S7tCD3q7rV15vm4Pl6T/vnS7od9YWvOHmrrB14TbX/MIMC9e9yW47cgP/FqZjhH4FAIANgyRAlMTEy5J74/I6HxRgkxM905Xn37QG3MfyYQJYireRf/WzVk6S7Law26qnJ3vYPR2H9qNQcwJn/g39UPJ6wfeE20/TGfrLBvzRMPvtpRW9Cf+N7eU9p1DRwKAQBbKf53FCYmJqZ1pqGPdtgShUUJX937LLSaVzU1KrfzH8Dl+MCKEtTV9ChB3/Ks7ddgsVdyzblvlKA9nLJ+4DXR9ue0QUDqKEFq9EGUAADYUpzXAOTGcQYJjTRK+LXJpZh8wZ3jXXTQNbm3f0J3+who/9dXcy9waKvBgS2bdeOqXq1dEyHPj2plYDxcYP3AayJX17sgwF+n3YHAlk+7BfOJL1pehNIEDoUAgG3CeQ1AbhxnkNBIo4RZXHcJYh1Y7gjQrLXWLQWk7gYDq9XdLjZ19XnTAKGqbN5letYchqDrR9DsgHDf3Lja+6AaDVh7qLViWFxnoXeOqO1P2wTDXWfP7nsyottFfQsrnrjdXyNRAgBgm3FeA5AbxxkkNN4o4bRTOxrivFprNrm3xnG0LkNo7rJYU1ttUTd+3dx4+6DyXYwhG80rI8zhJ5X5XQQg9pWg7GGgbwX1NdH2JzCUo32Vh7rl6C2seOJ2gkOUAADYWpzXAOTGcQYJbV+UwLRi8jp9KGDL4sShEACwTTivAciN4wwSIkrYsUnvanG8W1YmDoUAgG3CeQ1AbhxnkBBRwvZP5iUMaWv7+bYcM3EoBABsE85rAHLjOIOEiBKYSp04FAIAtgnnNQC5cZxBQkQJTKVOHAoBANuE8xqA3DjOICGiBKZSJw6FAIBt4p/XzDkffnm3HQy7+r9d+uuTS7/xymXrjgf18Ep7kwPvMQKLAPS36HRc/jgtLgTen+Z86JXb93eP789IiCiBqdSJQyEAYJs457Xq/z/+z5+3c6p/fnX/aNZkCu1qD49Pvr5/RJQADCIQJYwBUQKyGjhKYGJacxqqAAMAkJZzXvvs5oN6prPar+zg4PD4pMfZkCgBSIooAbts8FYJwClRhAAA20Q8r4lznnvnWvv/E69eefHil9Yabl6wvD1vDD0hSgBSquvq3WfM+Gw51fhu4LO9ybRav700wVzQrN5t0P4g70/rted3trZv3CGwDzO+PyMpogSUiiIEANgmK6OEuj3CD378C38da6YVJZg1DKmqAWANdc2++UQtPm5NRmBW4+erWTea1eb3aBZMJ/U/5rzFysaqe/vth9fc/sFk34oOpX2o8f0ZCREloFQUIQDANglHCXUXCf/2v18/+f99vOKKPzNKaH7w7OoiRAlAOl1Nv2bEAEY13q3R2/mA03Wis3K7hpUwCBuVFhAlICuiBJSKIgQA2CbhKOGMPXCDOT8QJXh9I9i/oQJYj1dX72Z0/3l5gTFj+RntFnfXO3TaKMHcihA5eA2PiBKQFVECSkURAgBsE+e89oMf/6KNCcyRINvV/H+WAlEC3S4CSUVFCW7TBS8VMPMEb2XtTnbjA/sCCqIEbARRAkpFEQIAbJPI81qvKKH5hdP4cZQoAUjHrfgbt+1WCcoFDp1mJW9lcwU5SrCXWN0vECUgJ6IElIoiBADYJr2ihMgLHOTW0kQJQCJmF4p+74pWd4xit4vT/ea+XR6wWN5GA22PiuEowXooogRsBlECSkURAgBsk75RgtkkQY8SzEuo6zHoiBKAZBZ19WnXTYFR17er8QfmOl0qII36OLMjQPOTrPWVYI1GyQUO2BSiBJSKIgQA2CbJWiUAGDd18IX8OFwgoRFFCeYcs3shs7/iX59c+o1XLoeidxN9C42J3VjrFHd230cOhQCAbRJ5XhMHg6xmbmAPASSgdqy4CXx/RkJjiRKq///4P39uRuy/un80azKFdrWHxydf3z8iSthackhrX/XV4FAIANgmnNeAbWX3WTJYjjDjOIOkxhIlfHbzwcwYPLn1Kzs4ODw+6VH6iRKKI0UJiyvD9v0FHAoBANuE8xqA3DjOIKGxRAntTH/Oc+9ca/9/4tUrL1780lpDGTF5nvhNiBJGxOnGtu5xxuxNxsprjW5rF13MCBkDh0IAwDbhvAYgN44zSGi8UULdHuEHP/6Fv44104oSjF5QGfFoZNwRccwEQRo2p11zkSoQJQAAthznNQC5cZxBQiONEuouEv7tf78W+xZS+0pofte2R1chShgFJ0ro3hVzaBs7MTB6pSFKAABsOc5rAHLjOIOERholOAM3hEY8MqIEr2+EOlogShgF7wKHZoEZLJiJgZUeECUAALac+NsJExMTU/Jp6KMdtsRYooQf/PgXbeE2R4JsV/P/WQpECXS7OCY9owTxWhWry1sOhQCAbcJ5DUBuHGeQ0FiihJWrxUQJzQUOTmWUKGEUerdK0O7d4FAIANgmnNcA5MZxBgmVESWcibvAwR20lW4XxyQ2SpDH2iVKAABsOc5rAHLjOIOEiokSzCYJepRgtovfm0y5wGFEoqKE9v1z8wSiBADAluO8BiA3jjNIqJgoQbyJXUZJAABsE85rAHLjOIOExh4liINBVjM3sIcYOQ6FAIBtwnkNQG4cZ5DQ2KMEQEMRGr8NjGbExBSehv4QAD1QaAHkxnEGCREloFQUofEbvBrJxDT0hwDogUILIDeOM0iIKAGlogiNX/Me/ZyJafMThwgUh0ILIDeOM0iIKAGlogiNH1EC04AThwgUJ2GhFcY96r8FZXhmAA57bLLT8oZEFzbbjXtvf8L9+do+cXJEQkQJKBVFaPyIEpgGnDhEoDh+oX3s5cvVnCfOXzFXeGRyqV3h8VevVHOq1ZxNrR8lAIiWIkqoPrTGJtpowNysMX76YvT0Zllgvn8c4OSIhAaOEpiY1pyGKsCI0bxHw9cqmXZw4hCB4jiFts4RzPNd4KZT2okSgA1aP0qwa/3L9glOMwX7ZpcfaPNnbj6xwMkRCdEqAaWiCI0fUQLTgBOHCBTHKbROZFD/0y7y1zc5UcLil8ozwq+cdrvoqVEfMrZQV5PabZBRoGxOBb2repufk66Y1+W//qAs72auuJilf0YitylU+b09dfOKZqk2v7mT84nl5IiEiBJQKorQ+BElMA04cYhAcfwowfm/+vvka1erqVeUYLV4tm/N6xzm75dnzmhRQruedRegRFbS1lXEDyb70odmETXs7Vt3MC4hmDRRgvgZid+m9KmyowS3rVGz59r89l52SMHJEQkRJaBUFKHxI0pgGnDiEIHiiK0SnCsa2kXtCu9eu1NN712/a27KqFx41zp0FQ13kVlxcaIEqeYFFMprcxNaxS7/ft+I/jq9t6k0SoiIEuYztPntLfsAwMkRCREloFQUofHbTJTw2MuXIvrU+PmnNz8bvHLLtMmJQwSKE3OBQz09eu7STMoaWl3lQqj4NAu9Co85Q61suZUgoDxt8XY+BNalQEa136rPC7X+0Gdk9Ta1RglJWiV4MQUnRyRElIBSUYTGbwNRQkyOELMbB5Onzuy/nmSXFuf0n2ywzvyTxZeGjT3csE+2x8QhAsXRLnB465ObTpTw0Y371c2jk27O7cNjc1NRUUJw6DmiBGyzZfl2irx9vU+CKCFum/GtEsQ+EbT57c7QKgHZECWgVBSh8dtAlBCZI6SJEqZnz+w9dzC62jVRgjxxiEBxEhZavSW1UYvxFgUucCBKwHZZFHCzo1G1mMeUf2WdyG2qQ674Izg4HTpKVyqtaJTA92ekRJSAUlGExm8zUcKfvfOVM/kziRIyTUQJQEJZooTlD6NWt4tWf4px3S4SJWDLzEv4nvGDvffJCFT7xW4XlSghaptRIzhYHTq6Qz5q2SEjOCCrsUQJD45O/vAfPn7qhQ/C0/VbD4baYYwNh8LxGzBKePan11dGCcYQaM9NzSjh4Dlj6KZldtCtPP8K8bq2Wlu7nmcT3iLtLvOQYumpycFyZrcFY6Y9v04Q6ijhJ83FmMbK8sPp6wdeE2V/nCjB3DcnmglsmSgBqGWKEmbagHTOknosO6IE7AhvMJLuw1DN1i9GmJlDqIpdLjjND6K2KbZLkC9Paj+wEfOFiIKTIxIaS5Rw45vDp1744O7hcTvdqaYHR/X0zWK6u7gO8P3/uzXUPmNUOBSO35hbJSy+QjS167om31RuDyZnm6ryor7dVnrtVgnaavXpvKlgW4vku8wr/E3lfPpc/c+8Tm7t3tlpV1df/l/dcdJECW313nxeyh6q6wdfE3l/zCjB2jf/NVG2TJQAtAYvtEorawD5Kf0lrEPsznHw4wy2yViihC8XUcLJqnv9+8c3vv3ihb975wtz5hpnvrVGNGI4pIDkX0f8DXIoHL8R95Xw+r7/a7xYuTXjg8AFDsYid1NmUiDeZb5CWwMXd6+9hOH1/TP+tQw/Wfz88RPj4ZytOXuorR94TbT9MaME9+5xW85eNob+EAA9DFxo5f7kAGxI2o+gVk/h5IiESooS6hyhWu1v/uMzcz5RwggRJWC2qSghZqY7x6tvH6iN+c8EogRxNa/7AKsiLd1lea1BlxF01zsYlwtMreYATpTQ3ddOLrSHE9YPvCba/phPVti35omverWJEoDa5gutdekW32mAHcDJEQmNJkq4vSJKaHOEv5p+6qxGlDBCRAmYDRolfHXvs9BqXr3XqNy+vq/FB1aUoK6mRwn6lmdtvwaLvZIjg75RgvZwyvqB10Tbn8goIfRqEyUAHQotgNw4ziCh0UUJ3zw49ntDMHOEa7cOw1GC2beQU9U3F+27Ha7WC5e3jDW9cZKa2VOiBF39plidzRhLI98jfQCcOQ6F47eBKOHXJpfEOuSKOd5FB12Te/sndLePgPZ/fTW39X5bkQ5s2QgF5jVz7ZoIeX5UKwPj4QLrB14TaX/MKMFfp92BwJaJEgADhRZAbhxnkNC4ooTjk9mf/vPPvnPu4n9/8nW7qM0R/nr66TeHx5/cuPflN4fmpsxK5qIiao14ZEcF6tgtZjeu3vgqy3tZXb3aYybB0fQ8ZwyAI74R0YuIEkq0gShhFtddglgHljsCNOu9dUsBqbvBwGrNsaF+oNf3z0iVbfMu07PNylYfBFYXhvvmxoVuF1dEA9Yeaq0YFtdZKJ0jBvanbYLhrtP1yBDaMlEC0KLQAsiN4wwSGl2U8Jf/elD9851zF3/66TxNMNsjVEsfHJ1U/1+zh4Q0KplefdPOCryK/3KxPRyM0MphcUd34/RPFOC+OF08E36PtEVECUXaTJRw2uknXQuY/dfNJvfWOI7WZQjNXRZraqstyurr5sbbB5XvYgzZaF4ZYV7DrMzvIgCxrwRlDwN9K6ivibY/gcEg7as8QlsmSgBqFFoAuXGcQULjihJOZvOw4C+aNOH5//rczBEqDx7Oo4TrWpQgD7+6WCjX+xcV3L09tyW9Z77Y6xqBvhICvJp/4I2IWESUUKZxRwlMKyav04cCtmxOHCJQHAotgNw4ziChsUQJvzS6XWzThHpqc4TK/YfHeaIEo5aqNTbw5hMlBBAlYEaUUPSkd7U43i3bE4cIFIdCCyA3jjNIaIxRwsxIE8wcoXJvESX88rYSJVidHMyaOW0Hi/6QAsvFi4vyxZ4SnHW5wCGW++K0t3u9R1zgUDiihLImu0lWytp+vi0HJg4RKA6FFkBuHGeQ0LiiBDM1eHB08sYH1805lbuHdZSgdru4+MJq9dsnL/K6XTS7+HM3st/1xEC3i5Hsl8d/5SLeI28RUUJxiBKYBpw4RKA4FFoAuXGcQUJjiRLqvhLuPTy+//D4XjPdPZxPd+rpwVH1/9Xrd6rVAiM4zOzRBJ3Kp/HLWL3EukbBrP3aHYwdCNven3KBQ8DiTZmaL5e5NPAeaYuIEkpElMA04MQhAsWh0ALIjeMMEhpLlHDv4fHv/u2HT7/wwbdfrKYLvzm58FuTC985d+G3X7q499LF77508Xdenk9PvfDB77166cHDk8CWsSM4FI4fUQLTgBOHCBQnbaFtovl5lm83+gOQVpqfF2O6Zet+7PT6JHPma/vEyREJjSVKqByfnNTNEMzp3kN3OiZGwAKHwvEjSmAacOIQgeL4hfaxly9Xc544f8Vc4ZHJpXaFx1+9Us2pVnO3pXX8FMNvBwggJEWUUH3upAHl5KHVrSuzQ/P9jzInRyQ0oigB6IUiNH71e8TENOA09IcA6MEptHWOYBbmwE23tK9TtSFKAPpZP0qwa/3L9glOMwX7ZpcfaPNnbj6xwMkRCREloFQUofHjPcKAKH4ojlNoncig/qdd5K/fMnsdqusRRjhQ13mM7qHshtHWeCty3ajeQvsgco9SzijbZvdJ860eWLekPSfMQC5OBb2ressF2PvI2Cu2g5D1+VBIH0Ph4+ZnBNLoaNr85k70NYZ8iBJQKorQ+PEeYUAUPxTHjxKc/6u/T752tZrCUcKcXbtwooS9vX3zVjNO1aQbsCpUka/rRss1zCGauiGv7FbWiwqT2fz6zKpG2gy4jZysEm6O5iYWYPsj45Xadki4Ph8KYZvSZ87+GLgfzGbPtfntvexPEidHJESUgFJRhMaP9wgDovihOGKrBOeKhnZRu8K71+5U03vX71rbCkcJQjXKEBElrNiCvRGvPiTumTAeF1kC8vCa6YRWcfodEVOuvh8Kty8TuVFCRJSwbEokzm9v2R9nTo5IiCgBpaIIjR/vEQZE8UNxYi5wqKdHz12aSVlDJxglOI273csMIqIE5cJs+9oKI0pwL3fwb1lXVgQvsADW1pY7+fNgFWDvsyQUzL4fCv9hxY9cilYJXkzByREJESWgVBSh8UvVcx4T06mnoT8EQA9OoW3/f+uTm2fsKOGjG/erm0cn3Zzbh8fWtmKjhHbeGeuChNNECeZ1DG6rhLgogegAm7IseGZh1grwOlFC3DbjWyWIfSJo89udoVUCsiFKQKkoQuPHe4QBUfxQnJSFtleU0MyXLzUIb7q9n/67bFSUsM7olUBvbWegZl8dYgEOtTgw5/b5UAhRwuq+Epy1um1o85s70VcCsiFKQKkoQuPHe4QBUfxQnAGihOm+UJFa0UAgUGsyH6TnBQ7LH3CNjuf3CRaQ0bzo7Rk/2KsFWBogQep2sc+Hwkv0YkZwsDp09HopVXphYAQHZDXGKOHO4fH5t784++bVZ175sJqqf6qbd5yWe9h5HArHj/cIA6L4oTgDRAny6IvN3NBgkOYte3SGelt9L3BobkmjSQIZmAMtLCgFWGjIYxRUqcuF1R8Kf5tiuwQh1ese2ru/NF+IKDg5IqHRRQnvf37r+z+68tQLHzhTNbNatPn9xGhxKBw/3iMMiOKH4lBogd2l9JewDrE7R44zSGhcUcL7n996+sULbXzwvR9e/v2/v9zerBaJacKKa/pCyhhqKOFe2q0Hy8ahcPx4jzAgih+KM75CKwyrsCXfIYDxSdv3qFZ9GN9xBgUbUZRw5/DYaY/wrecvV/Odtgn+lQ4lRQmn2te19nKNV2fUj8WhsAS8RxgQxQ/FodACyI3jDBIaUZRw/u0vnIsa/CihmqrVnE0RJSR/xAIei0NhCXiPMCCKH4pDoQWQG8cZJDSiKOHZN67GRAln37zqbMqpwBpdCLnNhMxF+26Hq/VCo/fippcUY6SYev16YbsBv4OgerV2WTe4kr9jcodH6g704z+i+Vq1w+B0yw+sW9LrJnaONJ8pPDv5xYl93HpXre5q7GfHoXD8eI8wIIofikOhBZAbxxkkNKIo4ZlXPoyJEqrVnE2Z1eNFzdMYSWjPqbSrY7eY3bhaXboaucGyS9a9fSMz2Jce2Rrvxd2a00Wy9UBGkCHvQH96T8mLDdsdzJq3zNfN30lrwOiJ2Eez8uLEPm79vK0hdBgXtzS8RxgQxQ/FodACyI3jDBIaaZTw3Zcufuv5y3cPj2b9ogSvhb2dFXj18eViezgYdyPGPd3BWpX9sFczmz5Y2xaaU3hNB9RdjxWOEqxGAOKwUcpOihddBC5wcAaOXv243rP2XnsOheOX8D0K9BhaRu+pWyLNi919us3mTN6w3cIiaT49S2FrUGgB5MZxBgmNKEo4++b8Aoe9cxfqxgiV6p/v/fByjwsc5OFXFwvl6njdysD+vdv7WmrMEL6yWtdTiKPFWj/gu60CHGItPWFfCd4FDqvGedZ2snne7uC1fpLjXeMQOb60tzF3BofC8fPfo8devlzNeeL8FXOFRyaX2hUef/VKNadaLf5RiBI2KMWL3Y13ZTRd8hNd8WGU+Yx3he1AoQWQG8cZJDSiKOH821/8+b/8z1e3D6v//+D1j5wEIarbxdNHCU4XAJFRgtlU322VEBclSF+KQzvQX4IoQX9sJ09w21zIV3YQJewO5z2qc4R2alcQb8a/uUQJG7T+iy3W+ptNm1c0KZGB8vBCxsAhAsWh0ALIjeMMEhpRlHDn8PhP/ulnf/SPH2shwurBIP3rD9ovnvKlCcvFixqx+R02dIGDnRGIiUFclKBdLRHagf7WjBKCl3S4u+s+u9WvQThK8Bo8W68Ch8Lxc94jJzKo/2kX+eubnCQpSb+kW8/50HQfw1B/sV73MMLFBG6fsu6qgW1qzQ1m1nvcP0oQIgoOESgOhRZAbhxnkNCIooTK+5/fevrFC1qOUC2qVvA35V00YHW7KC/yul00uvWzggW/20W5fmz1tBisRjv9BJh7u2+slbDbRbkvgj5Ven8np/tmt4xGd5FSb43Wi9Prca1OGKknFMePEpz/q79Pvna1mnpFCSk/INvN+niZhzu1v1i7W1m5q1qxT9n4bQY6VJGGtvHSEGn+8v70zIrCUWgB5MZxBgmNK0qYLdKE7//oitgeQcwRZmLHgP5vY82a9hKrzm9USYxt1D/AKX0lWEMVxlzg0N7DHqcg9AOftQOnYD3iKaIEeSfl8SGtx1JenF4XOEzN18F5YhwKx09sleBc0dAuald499qdanrv+l1zU4FrX9ZqtrPlIn7oV5t1ia+r3qds1DbVRgnCGC3GbkhLvPleSsEhAsWh0ALIjeMMEhpdlDBbXOlw/u0vnn3j6jOvfFhNZ9+8Wt30r2vYGO+ifWzCypedQ+H4xVzgUE+Pnrs0k7KGlpbUSTPQsa5V0n7eF19ZvX8ZJSeN2KbSKEFLC4J7Il4ExTVQKFvaUW/46gJsSurhjfTNmhd4HgTnM7wRNmCMUcK48IvnQIgStoB2gcNbn9x0ooSPbtyvbh6ddHNu2+lhoHdVooSQ5QvnjEkb0V9svyghbptCqwS9OYLymOp8WiWgfH6hPfWoN6eMEkgggNNIO7zR8pbfKtfpl026qtidz/BGyIooQWC25ydHGApRwhbI8gtb2n5Jt197qZDQvckssr/YjrJO5DbF7jNXvneRrRLoKwHlcwrtOqPeECUAG5R6eKPlCc4/z6lpvnL6Zngj5EWUgFJRhMYvU2Ndul3sZf7S7RnfUCL7i13VVa21qehtWt9q1AFi3D4ctb4dnV5y6JkVpYu5KKxd5K9v8jpdlRpF202ird9R5INq3zFc3G6P5ls9sG7NhA0QZiCvcoY38jMCaWwzbX5zJ06OyIcoAaWiCI1ftut+E/ZLugO88U+i+ott72p9Awo2P4japtMTpMvt+DZ2AAd+eME20C4KmxnZwSlGvZEHWLGGl5oo3do6+o7hYl37tPwAr2ieTUsz5FfM8Eb6MGzmnmvz23vRZA/ZECWgVBSh8eM9gkAbxWENXA6K7SC2SnCuaGgXtSusGvXGpvXFuuJutb5juAhDYEv1ImEkLrIE5FTK8Earo4RlgyJxfnuLjoSQDVECSkURGj/eI4jS/uhIJ9XYGjEXOJzpO+rNgjbAitvAJyJK6DOGS9zwz3YPVVKzIyCxIoY3StMqgeGNkBNRAkpFERo/3iMMiOKH4mgXOKw16o06wMqCkyecMkpQHyI6SiA6wGaNfXgj6cGEIZCbKEHvK4FWCciKKAGlogiNH+8RBkTxQ3Gy9C+zemwWY97pogT9IaKiBLUHViCfUQ9vZMx22hc43UbVC7X5zZ3oKwHZECWgVBSh8eM9woAofihOtihBGmBlui9UoVY0EOg7hktclOCMF2N2VAdkM97hjeyHch9a6m1Bmz9jBAdkRpSAUlGExo/3CAOi+KE4mUa9kQdYkUdfbOaGBoM0b4XHcImNEmZ2hwk0UcAmjHZ4I/tx1If27i/NZ3gj5EWUgFJRhMaP9wgDovihOBRaYHcxvBEKtA1Rwoor+0LWGnDI6aplK0L0NCMwdSGq+SuD1zhMWCTNp3v2cvEeYUAUPxRnTIVWGFaBrhGBrBjeCMUZUZTw2MuXqzlPnL9irvDI5FK7wuOvXqnmVKs5myJKSCdFlNClqubljnYzMi15VeaTqhaK9wgDovihOBRaALlxnEFCY4kS6hzBHBs5cDM8eHIfRAmO9aMEbWhcr+sZJTJQHp5rvYrEe4QBUfxQHAotgNw4ziChsUQJTmQwM4ZTdub75DGSpdZ45iKv7Xy9sP09XeqNyGzwZ48gU++D1bdKu76xD3V1uv+rJRM37vSlZOx+/WTrZ+A/TfMFaWcLPTGt2GbgQi/jfeofJdADbZF4jzAgih+KQ6EFkBvHGSQ0oijB+b/6++RrV6upV5SwqPAa4wntnbGjAnXsFrP9vTe+ijFGkjX/jBklnLE3IA31mqYnAvmZGxs3riswn/Tiae3tW3eQXpD2edivSew2tdYZZvChxT2BGIhxcUvEe4QBUfxQHAotgNw4ziChEUUJ/hUN7aJ2hXev3amm967fNTeljjo0c7MCrxq/XOxdx++2cmh+cPdaKJhRgrn1Lo2I+C3+9CI2Lg8tLezyzF+n9zbVRgl2xONsS1zizfdSCg6F4zea9yj9Z29X0TMrkBGFFkBuHGeQ0LiiBP+fanr03KWZlDW0uoqtPPzqYqHcKWr9o7pdyxU6LV4s9r6uBvtKsHZKGnM2DW3j1s/74hi2+gsijosbtU2lUYKWFgT3xJ/vxhQcCscvYe+qvWVtELS76JkVyIhCCyA3jjNIaERRQv3PW5/cdKKEj27cr24enXRzbh8em5tKESWs+rVemh8ZJTT/5qnMCBtf1NzNCzESRAlx2xS+5+vNEZTHVOfTKqFACXtX7Y0oIQt6ZgUyotACyI3jDBIaS5SwDr25vfHF019kLF7Ud8WeEpx1oy9wsG4vdnCaqS7jbVxtWBBqcWDOFdaJ3KYXqUQNkBuZ3dBXQoES9q6qdPxpl7imPFpNi7o2RVJ/omoPHVaXoolej02jZ1YOESgLhRZAbhxnkNB2RQluW3qv/0S920Xz13N3I00T3JXdLpq3nBr1vO1Dnl9F643bX92t/h8D1f7AC2JtKnqbVj1BC2W8Phy1vh2dLiuoJxQnYe+qSsefcpTgLQn0J6p11Op2KVokemblEIGiUGgB5MZxBgltW5Qw034ba9a0l1g1YTMOMH/VlH93q3+Ys6otU3OptYtqpToFN7gw9rKarV+MMFv1grjND6K26fyw6Nqfugviqgm0Xi5Swt5VLUJXJAvBKEGqUwc6as36od0YemblEIGSUGgB5MZxBgltQ5RQAK/Css0CDZhPiz7VCpWwd9WZ3PFnjyhByMgCvatsS/cK9MyqbRUYoc0X2sCnL3w9kd5XFLCD0nxnCHbLZqwj/V7qz9f2iZMjEiJK2IDt+Hmzh6guEqJxKCxXut5VtY4/iRJWoWdWoBx+od3cqDceogQgWorvDPYJso0GnOZ3VnNh86pAZT4/xSErooS8lgeCbaiRjM6OFKGiJXuP1N/C7S+xTleoK6MEP+WzL3DYig8uPbMCxXAK7UZHvfEQJQDR1v/OYNf6lyc4/zynpvnK6ZsLhJEXUQJKRREav6RRgtrxp9VfqvXTu9WfohZFKB21bk2UQM+sQDFiLgprF/nrm5wunOYfuwPrlrGane41baSdgae0RXp/VYGEoT4ytOuuHAsm9ulE7wB2WjnDG/kZgXuWbj4L0vzmTpwckQ9RAkpFERq/hO+R0vHnzGoDaJ1Nm3v4p1n9Cn/lYonC0TMrUAjtorCZkR1EjnpjXnS0/ORI7Z/dMbCsG8rAVN6iPTPis1bTDqJW4hgxFkzs04neAey2YoY3sgux2wSo2XNtfnsvmuwhG6IElIoiNH68RxDQMyugEFslOFc0tIvaFcRRb7wqiFwhkf917xNYFNjCiisk+owFE/l04ncAO66U4Y1WRwnzGdr89hYdCSEbogSUiiI0frxHENEzKyCKucDhTNyoN15HMvKtQBOiQNcxcl8JRismpfWQuIFQSzElpVBu9dgB7LoihjdK0yqB4Y2Q08BRAhPTmtNQBRgxeI8wIIofiuMU2vb//qPe9I8SAsPQBUeoC2xBp9W7tLFg4qMEogPEGfvwRtKDuQ/d3NbmtztDqwRkQ5TAVPY0VAFGDN4jDIjih+IkLLSnapWgXMUQWBTcgq7vWDBxT6fHDgBtV55jHN7ImO20LxD7dNLmN3eirwRkM1iUAGDrcbrCgCh+KM6QUUKKbhenzpg4+1q9vu9YMD2eTtwOAIuCM87hjeyHch9aiu60+TNGcEBmRAkAcuF0hQFR/FCcYaME65puZ0gcfZHza6rZX4HeQqDvWDCxTyd6BwAnIZsby/BG9uOoD+3dX5ovRBScHJEQUQKAXDhdYUAUPxSHQgvsLoY3QoGIEgDkwukKA6L4oTjbWGiFYRXoGhEQMbwRikOUACAXTlcYEMUPxaHQAsiN4wwSIkoAkAunKwyI4ofiUGgB5MZxBgkRJQDIhdMVBkTxQ3EotABy4ziDhIgSAOTC6QoDovihOBRaALlxnEFCRAkAckl7umpGVJp3ImSO6iwOoIQ8tF6c+ul6ljJ7ZPOG7RYWSfPpWQpbg0ILIDeOM0iIKAFALv7p6rGXL1dznjh/xVzhkcmldoXHX71SzalWc7dljNLsIErYoBRRQjfe1cFkv33n7AG+tTGxlPmMd4XtQKEFkBvHGSRElAAgF+d0VecI7dSuIN50z3N6HZYoYYPWjxLEWn+z6WaJ9jDBUuAu4NsSikOhBZAbxxkkRJQAIBfndOVEBvU/7SJ//VZzaUPXpt2MD5wowVi5nV3XQNslxurmpo3Zi21O22XzxzywbgUfbiycEaq7urr8rOtXqb6EoG020K1oXEwQ/0p629SaG8ysN7J/lCBEFHxbQnEotABy4ziDhIgSAOTiRwnO/9XfJ1+7Wk3hKGHOrkRqUYJ1GURXk66rucsFZkt6o4X9Yp3mERZ13+VKyzqyeatZTXm40bBSlu4VVJ714tns7Vt3MJ7qpIkS+rySwja1xMV8/fzwKDx/eX97Dt+WUBwKLYDcOM4gIaIEALmIrRKcKxraRe0K7167U03vXb9rbSsqShAaKLS/pUt1apu9IfvRxMfWHm48In7o71ZxuqMQo5G+r6TbxYXWKMGKLdxtiUu8+V5KwbclFIdCCyA3jjNIiCgBQC4xFzjU06PnLs2krKETEyU43ftrffz71WGvZb4dEii31IcbkXZnnVq/9Ky9l1h4Nn1fSf9hhUYJWloQ3BN/vhtT8G0JxRlloR04JGW8HpQg9fBG+ma7rx72h8Gfz/BG2ACiBAC5aBc4vPXJTSdK+OjG/erm0Uk35/bhsbWt2ChB/c1bqgCb1zEEmjcEooSxRQee5d6ar4D2rNeJEuK2KbRK0JsjKI+pzqdVAsqXctSbZEbU3oooAWOVdnij5S3/JwojwNcut3TnM7wRsiJKAJBLytNVTJSgDhipVID1n9ijogR9fMoxaXuQNL9xiM861OLAnNvnlRSiBOd6h9VfviJbJdBXAsqXctSbZIgSgJVSD2+0PMH55zk1zVdO3wxvhLyIEgDksukowW0q33YFGKgAmw0Be17goD7cuMz3d8/4hqI+a6HaL3a72OeV9L5dmd9qAtGP3Yej1rej01MFIzigdKlGvQn09nLg5IrC1VnOwCv+PdQakziiTeyAOKHxdOTxeoDTKWd4Iz8jcM/SzQdKmt/ciZMj8iFKAJDL5qOEmd2DgXzBoNsQsFm17wUO6sONjDnQwoLyrIPXZIpdLqx+Jf1tOj1ButrvZEIFJzSAAz+8YBskG/XGS1jNC5yMgW2shEEZeKX7FHvHEov7U6jRwUHcgDjqeDpECUismOGNtF6f7T3X5rf3oskesiFKAJALpysItFEc1sDloNgOyUa9Mar18w/cpP2EmH292B8asz5ltRdaLgjnCIERbeIGxFE3RpSADEoZ3mh1lDCfoc1vb9GRELIhSgCQC6criNJ2WEkn1dga6Ua9aT8WdQ2lqWqEeo0Njfeyt7eqf1R9RJv4Rl5WuyOiBOQUKu5uIVynT+K4bWqNEpK0SmB4I+RElAAgF05XGBDFD8VJOOrNsjLR1FDqysSB2Tqhd5QQrMXrAWFclKCNAkOUgDzGPryR9GDuQze3tfntztAqAdkQJQDIhdMVBkTxQ3ES9y+z6O3Qvs7BulI7cIGDEyUse1+M7SnBEj0gzurxdIgSkE7bH+gYhzcyZjvtC/xrjwLzmzvRVwKyIUoAkAunKwyI4ofiJC209SUHxgXh86YF9g+c8ngqcpQwc3tqFB9PGNEmOkoQR4EhSkAu4x3eyH4o96Gl3ha0+TNGcEBmRAkAcuF0hQFR/FCctIXW7ihRyAGU4RfVKGHmDgchPaK3wci+EmLG0yFKQEqjHd7Ifhz1ob37S/MZ3gh5ESUAyIXTFQZE8UNxKLTA7mJ4IxSIKAFALpyuMCCKH4pTSKEVRmtIXQMCdhHDG6E4RAkAcuF0hQFR/FAcCi2A3DjOICGiBAC5cLrCgCh+KA6FFkBuHGeQEFECgFwCp6s7h8fn3/7i7JtXn3nlw2qq/qlu3rHHRQfWwbclFIdCCyA3jjNIiCgBQC7a6er9z299/0dXnnrhA2eqZlaLNr+f2Ep8W0JxKLQAcuM4g4SIEgDkIp6u3v/81tMvXmjjg+/98PLv//3l9ma1KCZN0DoT2mKbecr2yPBl49sSikOhBZAbxxkkRJQAIBf/dHXn8Nhpj/Ct5y9X8522CSuvdIiqV492CPJT7ViuKGGTr9Jm3xG+LaE4FFoAuXGcQUJECQBy8U9X59/+wrmowY8SqqlaLbxlooRhd6aAx+LbEgpEoQWQG8cZJESUACAX/3T17BtXY6KEs29e9bfWDWW+N5ma9ep5JbtbdOCsbDTYN1a0arT+/MUc+wF6bKRe1643N0lArx1Tn3Ii/s6YO734f9ru2nz5gXUr8AK6e38gPXHpjYt/3HpXuyVeSMG3JRSHQgsgN44zSIgoAUAu/unqmVc+jIkSqtWcTc0romYd16qH7zcL7ATAr8tbW1iup8zvZpsrhDZi7NBEjxLidyzwlFOyd8aJEuxsRU5a5P03504nXcBjPXH5jYt83PolMd8Z5/Xh2xKKQ6EFkBvHGSRElAAgl3CU8N2XLn7r+ct3D49mq6MEt2W8UePWV7Tu5Gyhrdlr89t/1S3aG/F3JzJKiNwx/SmvKRwlWI0AvCYBgf0Xr8cIXOBgLIp7XO8FsSKNOb4toTgUWgC5cZxBQkQJAHLxT1dn35xf4LB37kLdGKFS/fO9H15ecYGDVy91Zpgt5eWKv9W83mgrr8037+TeFjfi1/LjogRtm6uecjLBKEFZYtxSX8Dle2LtshcliG9c1OMKG3Nn8G0JxclXaAODs5y6D5Pm87vRMV9G2wcOdluaU7T3bULYrH3tYGi+tk+cHJEQUQKAXMRuF//8X/7nq9uH1f9/8PpHToKgdrsYOruazeH1qrD2m37wt/76i7LVgKDHRuKjhKhtjjhK0HfLyRPc5hjyG0eUgJ3lF9rHXr5czXni/BVzhUcml9oVHn/1SjWnWs3dVlwjoPCKIV47oM0gSsAopThFV4Xb2EQbDSjN77QrDd35/ueFkyMSIkoAkIs4GOSf/NPP/ugfP9ZCBHkwSO87q92nQXeeda/bb//XvvUGvg3XW1Z7Sli5Ee/bulijjt7mIBc4rK7Sr65OGGu4T1x+4+KjBOsF8V4gvi2hOE6hrXOEdmpXEG+6pX0TUcJG2yPUiBIwSut/Huxa//KM5pzY7JvdiVObP3PziQVOjkiIKAFALuLp6v3Pbz394gUtR6gWVSv4m1L7IHSr+s5q9jX35qAM+0aNVJgvd7sYtZFlt4vmLwN2r4nxO7aZbhflvgj6VOn9/Z/umz+WGC+D1Fuj/cb1eVzrNXUqGHxbQnGcQutEBvU/7SJ//ZZ14ZHd+UpgUU0bUMZkXZokjETjVmv2p93ndRo5NExohBeiBKzFqaDb53u/1Lll2Fmxvaav/vHBLbKR2xSq/N6eunlFs1Sb39yJkyPyIUoAkIt2unr/81vf/9EVsT2CmCMsGGfj+nTtf3+tzpbW10z3Sl7zO7R5ZvXn2xVToVIf3Ii/rr3HsTumPuWkrJ05RZQg779cHbEeS3vj+lzgMDVfIueJ8W0JxfGjBOf/6u+Tr12tpnCUMBf4IOmLtAFlBH7DIucQZw6Ss7dvHU+d44TcMFsd4YUoAevyvio0v02Ipc4tw9KYTVYibn5piN+mVLD1sN/cc21+ey+GN0I2RAkAcgmcru4cHp9/+4tn37j6zCsfVtPZN69WN93rGgDdyhoF35ZQHLFVgnNFQ7uoXeHda3eq6b3rd61tnSZKEBooBPuSMfuktT+OZu3MvgjKb5Wl15RW7yJwKkY50op5t4pThsWMzV6n9zaVRgkRUcJ8hja/vWV/Zjg5IiGiBAC5cLpCPkQJ2D4xFzjU06PnLs2krKFziijBuvhBa+7TcLqSFbqZ75qMO22vI5s7RYzwApySVkClUuf9yC98LAL9NkVsU2uUkKRVghdTcHJEQkQJAHLhdIV8iBKwfbQLHN765KYTJXx043518+ikm3PbadV1yigh+jKqvFGCeRkErRKQwbIkueVYKnXrRAlx24xvlSD2iaDNb3eGVgnIhigBQC6crjAgih+Kk7LQniJK6DW+o9tjTegCh95RQuwIL8Cptf3tCH0Ez7zhFbUWB+ZcYZ3IbaoF2wkJ/HY79UJtfnMn+kpANkQJAHLhdIUBUfxQnMRRgtYyWl80VQaUEfi/1NrdLmpXokdHCeYGuMAB6c3L0p7xg71a6qQBEqRuF5UoIWqbUSM4WB06en2kKokgIzggK6IEALlwusKAKH4oTtJCqw7OElykDlIjbd6q+iijN56yr4S4EV6ANZgDLSwopU7oRNH4mKxoSBO9TbFoy9cOiR2ZKPOFiIKTIxIiSgCQC6crDIjih+JQaIHdpfSXsA6xO0eOM0iIKAFALpyuMCCKH4ozykIrjOuQur4DYK5Xz6craUNSjvI4g1IRJQDIhdMVBkTxQ3EotABy4ziDhIgSAOTC6QoDovihOBRaALlxnEFCRAkAcuF0hQFR/FAcCi2A3DjOICGiBAC5cLrCgCh+KA6FFkBuHGeQEFECgFz805U558Mv79Y3q6n6v13665NLv/HK5VTnOa3boS2wZU/NHpf+FHd2u6nm2xKKQ6EFkBvHGSRElAAgF+d0Vf3/x//583ZO9c+v7h/NmkyhXe3h8cnX9492K0o41VDpZTy1tOQXqh63mygBxaPQAsiN4wwSIkoAkItzuvrs5oN6prPar+zg4PD4JOFJroz6NlFCJOmFWrwO+/4Cvi2hOBRaALlxnEFCRAkAchFPV+Kc59651v7/xKtXXrz4pb+1+qdnb1jzukJdj3y+nNsNg743mdr1bWMjbc1T2IK/2mJOuyHrlrRNd4cX69r14CYJsAZtX7XNwFMrnfHq1C9N+xosZ4svVPMyChkD35ZQHAotgNw4ziAhogQAuayMEur2CD/48S/8dZyZek1+/v/e3n5bjbSumrfygXpVc1G9wN1CaLXFbHMFZWU3bJjoUcJMXCJtM/DUtoATJVgJgvmsvbhGiGkW+LaE4lBoAeTGcQYJESUAyCUcJdRdJPzb/36t3de45VUUu3q4Ve/217Rr4uaidhPhLRg1fuEHcG1l42G1Z6FGCYFtak9tGzhRwp4V7ciZi/7mzvFtCcWh0ALIjeMMEiJKAJBLOEpoB26omT0mOB0xSpXmtupo9xjg9R/QzbDax5vN5O37qKsZC93b3spyLT8uStC2GXhqW8G7wKFZYAYLaoxDlIBtMGCh7TuESnMB0kaPQafqVQbYgDQn5O67g/FNwCnz5nWOB8H52j5xckRCRAkAcnFOVz/48S/M0R/b/9vV6vEdzOEhl+KjBG9NO0oQT/QrtuCuesauwIorrxslRG1zt6MEq+sMIfXh2xIK5Bfax16ej4z7xPkr5gqPTC61Kzz+6pVqTrVayv1YWWV32nJtClECxirFCbkq392XAusnC+vyTqkHp8B8/yPDyREJESUAyOUUp6vPbj74f5e/cuf6X1vtCxzkaueC1NeBsPXAFtwV1Z4Sgju83Be5db61JHqb232Bw+pWCdq9G3xbQnGcQlvnCGbeGriZsrRHRQkDHH2IEjBW638kxFr/nNNjknRy1ObPrHyiwckRCRElAMgl4enKbnzr1ubN82Sgb0J3I/tdhO9uQVnN73ZRWdmev+x20fytwN8z5xoLZZs70+2iGiXIz5koAdvAKbROZDCzLxDz1zdobaDk4VHMO8hDpRjEwXQiR9hZPMq0Xbe5dMt7MHNzgb5wgFNxziT22d0veOFhnswrJYVPVuw2hSp/t7d7+rcV6fpHtyGD86nh5IiEiBIA5JL2dKV8t/R/CjBWrE/sxmLzW3LgckJ/NasaL1XqvR0TL3Vs5zl75l53rGwz9NRKFxUlqBdoEyVgG/hRgvN/9ffJ165W0zpRgjg8yqq+R2z+ZzR+hB3nIiW5Vfa+9ZGX+10FTssqSebHQyx40jBP4k8F0icrfpsr2ySoYxipYxs197LPmJwckRBRAoBcOF1hQBQ/FEdsleBc0dAuald499qdanrvutG/TDBKEIdHWSNKiB9hR2iAZd0SH9SYT5SARNTsWlrFH+bJv4M+8FDUNv36fvODgrOSFxnMZ2jz21v2x4aTIxIiSgCQC6crDIjih+LEXOBQT4+euzSTsoZG+AIHc373O+opo4T4bnGFDmPUW9YVE0QJSE0ro1LBi+mbOdTp0upt6o0S6jtLn9JZbKsEL6bg5IiEiBIA5MLpCgOi+KE42gUOb31y04kSPrpxv7p5dNLNuX14bGyp6CjBvAyCVgnIY1mY3KIsFbx1ooS4bYa6SjAe0X3o5rY2v90ZWiUgG6IEALlwusKAKH4oTrpCq40XkyFKiB9hJzJKOMUQLkBvbR+gZkkWC17MME/KOpHbDJft7vOrRYTa/Obu9JWAbIgSAOTC6QoDovihOOkKrTZeTHSUEO7T1f+ZNnqEnbgowdwAFzggi3lx2jN+sFcLXnCYJ6PbRSVKiNqmXeGfTuwg0Oq6WeptQZs/YwQHZEaUACAXTlcYEMUPxUlaaMXxYuKiBHWoFHO5tSxyhJ3IvhK6rVVzuMABmdgjM83Ughce5mlFW5robZqlW+wqxHtouZ/GM4GIosbJEQkRJQDIhdMVBkTxQ3EotMDuCvWXcEpid44cZ5AQUQKAXDhdYUAUPxRnfIXW+PFV/ikUQDIrLy3qRRuScnzHGRSMKAFALpyuMCCKH4pDoQWQG8cZJESUACAXTlcYEMUPxaHQAsiN4wwSIkoAkAunKwyI4ofiUGgB5MZxBgkRJQDIhdMVBkTxQ3EotABy4ziDhIgSAOTC6WpnaL079eP1OBUcgksbub5B8UNxKLQAcuM4g4SIEgDk4p+uHnv5cjXnifNXzBUemVxqV3j81SvVnGq1ze0lI5UnkCJKsMfBaiMDc7PuWN3NMsa7wnag0ALIjeMMEiJKAJCLc7qqc4R2alcQb27uPEeUkMD6UYKdBizbJzjNFOybRq4gjsfNtyUUh0ILIDeOM0iIKAFALs7pyokM6n/aRf76jsXP0FbTduuHae9narcdvDu/qaoat52aa1tXrdOG7r529KA91mhpT9N6dbqnUscE9Uu1vJvzMjbrtLON1yFym0IU4O2pm1dYS/2GCXxbQnEotABy4ziDhIgSAOTiRwnO/9XfJ1+7Wk0rowT3F+hlFdKuBZsXzwsru2HDZNqsYK7sVnebbdjX5luZhfRYo6Y8zYPJfjPXfI6Lp7i3b93BfRnrwGC50fnL0L1YsduUYhj7BXXbj9jRghdG8G0JxaHQAsiN4wwSIkoAkIvYKsG5oqFd1K7w7rU71fTe9bvGlpxKpFGHXP6r5gHGykpF31rduGE8iHvPLj/Qd2zU5KeprGKlJcrLaK/Te5tKo4SIKGFPTyP4toTiUGgB5MZxBgkRJQDIJeYCh3p69NylmZQ1LFnXIbi98S0Xure9lbUmA3YFtb1lVoe97hSaGcEdGzPxac7syxHMar9Vnxeeor2OHyyEt6k1SujVKsGLI/i2hOKMstAm6QmljAMjkFrq4Y2Mbx3OWZPhjTAIogQAuWgXOLz1yU0nSvjoxv3q5tFJN+f24XG3oeCFA1bb+sDKcVFCc9M6BQejhDK/IQtPc/E9RGjbsU6UELfN+FYJel8JtErAFhjlqDdECcCpJR7eaLpv/WxidRbF8EYYAlECgFySna7c5vDOorq/P7GnhIiNuDnB4vY0WH1ubwd2bOy8p6k2LAi1ODDnCutEblMdRsMfwcHp0DHQKIFvSyjPKEe9IUoATi318EYG4wTJ8EYYDFECgFwSnq4Wv24b+fu+e8m9eepUVrbnm90u2ifaeYV1z62lGvc0exVUH2v86qdpX4dg9SwZqPaL3S4qUULUNqNGcLBeejfSYAQHbIFUo94E2vMcOPmhcGmWM8CKfw+5ZqSPdKOP8LJiH1bepdAkFyNVzvBGy70NnKUZ3gibQZQAIJe0pyuzX4Ku9bx9YYNdwxe+bEqXGTbnc6mlYHuv+hd87/tu6LHGzn75ZuYXm2q2/iVlJryMweYHUdsU2yUIV1N0D70qiuDbEoqTbNQbpyPaM1YU2o1/Yx/1lAFW7LFs9GOcPtJNYISX0D6odylu0ByUopjhjezCz/BGGA5RAoBcSj1dqV0jICf9t5eVuBwU2yHZqDdGhXv+wZq0n5D2YOYd1cx6kxWmdsPkhI+D+kg32ggv0fug3oVLJ5DW+Ic3auJ0oY8n/UHpSAjZECUAyKXM05XQGQBRwmac7idGOqnG1kg26k33sahrIkZPsV2bLr/Fjzquy/yar1UfTj2DVVotxe+DdRcXUQISKmR4o+Wd3YRQfFCGN0JORAkAcinudDXdl7+ZEiWUqLjiByQb9aatTDQ1kboycWC2TugdJaw4Cm4qSiA6QE5lDG9kPyLDG2E4RAkAcuF0hQFR/FCclIV2UX+YmtnB/DoH64rswMUFTpSw7H0xmCbo1ZmIblnD+xC4C5BYEcMbNcvEC39WNErg5IiUiBIA5MLpCgOi+KE4SQut1w2iPTKNO/qMPdqKHyXM3F4S5ceTRrpRq02x+xC4SzmD5qAUIx7eaDqxu2aweiBleCMMgSgBQC6crjAgih+Kk37UG+e6bDsHkEej06OEmZsXuA+njHQTe7m4ug/2XUodNAelGO/wRlLvCv5DM7wRNogoAUAunK4wIIofilN0oaVPGSALhjfCiBElAMiF0xUGRPFDcQoptMI4CsYoEQASY3gjjBZRAoBcOF1hQBQ/FKfoQkuUABSh6OMMxoYoAUAunK4wIIofikOhBZAbxxkkRJQAIBdOVxgQxQ/FodACyI3jDBIiSgCQC6crDIjih+JQaAHkxnEGCRElAMhl8NOVMIjZGXG0JKxJ692pn65nKW9ALWMN902kZylsDQotgNw4ziAhogQAufinq8devlzNeeL8FXOFRyaX2hUef/VKNadaLckOuFEC8UEuKaIE4w2a7lsJULdl5U1kvCtsBwotgNw4ziAhogQAuTinqzpHaKd2BfFmkvOcWcFN87s5ZOu/umIaMGdmCfrDCBkD35ZQHAotgNw4ziAhogQAuTinKycyqP9pF/nrmxbDjE2rimTXsP3AumWu2baMn8ZECeYdDmbuiGbG3eL3YeScEarnT6J+xt3TMa8rqF+C+mVa3s1c0bjIoJ3tvIAR29TbjJjvRyCx8KMIvi2hOBRaALlxnEFCRAkAcvGjBOf/6u+Tr12tppgooa2JLiun5q2uYbxRX7Uqv1aVtquOdtXoav3JyighZh8KYD3F7hkeTPbNOruZG+zt7Vt3MF7WSRMltC+H+S7Eb3N1mwTtTWzXtOfwbQnFCRTaO4fH59/+4uybV5955cNqqv6pblYzN7yHAErHyREJESUAyEVsleBc0dAuald499qdanrv+l1zU94V8/atrg7rddIn1PAXmUBTe/Z+5g5GCav3oQjG7mo/9HermHHLTHlR7XV6b9PPAZq2IuqraryJ7YPaK/NtCcXRCu37n9/6/o+uPPXCB85UzawWbX4/AZSLkyMSIkoAkEvMBQ719Oi5SzMpa2jZVXXllleDDV7U0GUJdp00fIHDqn0ohPaaWT/7G9V+LUIx72c3HrCDhfA29UYJ9Z1jGiz4cQTfllAcsdC+//mtp1+80MYH3/vh5d//+8vtzWrRyNME+qnByHnJ9Jbj5IiEiBIA5KJd4PDWJzedKOGjG/erm0cn3ZzbdsPdqGq8V8tVv8LKFeh2HMLtjxKaHTZfCPMCDrcFwWmjhLhthofXUNqWrIwj+LaE4viF9s7hsdMe4VvPzwe4cdombOhKh1Md6E4ZJRR3UEVBNlm6NvZY0Q/EyREJESUAyCXh6Sq6VULMBQ7igvbO3sa3MkroOpGU+6U0XstQiwNzrrBO5DbDr5/2Ljrz6SsB5fML7fm3v3AuavCjhGqqVtvE/hElYDsQJXByRCJECQBy2XSUEOp20e3+r+1dwatJm70DWpvYrihhsct7xg/5ZkZg9aIoVPvFbheVKCFqm3YQsOwAs300rQ9H8yVnBAdsAb/QPvvG1Zgo4eybV/2tKSOtaKOxrBh4pRvrRu7O1otxm9nTcJQQ/VhAEn7pMk/g8UM1yYXfHhNKKMnyqEaxj1vvardE+8hYt9195+SIhIgSAOSy+SjBOkvXgxMKwxfKQwJI3wWsTWxZlGDnLnPWtxP9YoSZ9a1F6nLBaX4QtU13zEfpu1ZgAAfhCgm+LaE4fqF95pUPY6KEajVnU9pIK+5oLFb2qiSv7WfLv/xLuntgJB1f5GMBKekn8MihmuTCL4wJ5X9q5AIf+bj158lK6Fd9ZPymhJwckRBRAoBcOF2hh1B/CSuI3TZS/FCccJTw3Zcufuv5y3cPj2aro4SIkVbcmodyIYL3i+3BirtHjqQjUR8LSCocJfQeLqop/OJnKFCSnTaVEUNEuZ8mK7yQHki6JpGTIxIiSgCQC6cr9NKjymHQrsSm+KE4fqE9++b8Aoe9cxfqxgiV6p/v/fDyigscYrpH9ZtAG/eRmwZ5v94Kd48fScdcIfxYQFrBKCGuj2fxs+OPCSWUZLHAx1/FaW8stEzr3IiTIxIiSgCQC6crDIjih+KI3S7++b/8z1e3D6v//+D1j5wEQe12MTZKULulVeMD5dfbwEMHo4S4xwLSShAlhC7asfIEty2PXOBzRAlykMDJEUkRJQDIhdMVBkTxQ3HEwSD/5J9+9kf/+LEWIsiDQfYaaSV+LbdLk6grs0PVrsjHAtJaM0rQCn/HWMP91MgFPj5K8LpBFjMLoTukFidHJESUACAXTlcYEMUPxREL7fuf33r6xQtajlAtqlbwN7V6pBVnnbY/OHXgFel6bv/uvbpdjH4sICW1L4I+VXq/8AtjQtmPpRf4Po9rdcJot3gw+2BU0w5OjkiIKAFALpyuMCCKH4qjFdr3P7/1/R9dEdsjiDlCbcVIK+460hgq1sArxhK7P3nn7vpIOoL4xwLSsUrXKaKEmVj4w2Ormr0peAW+zwUOU/PzJT4poTMHBoNEHkQJAHLhdIUBUfxQnEChvXN4fP7tL5594+ozr3xYTWffvFrddK9rALDVklz3w8kRCRElAMiF0xUGRPFDcba60IZ/KAWwGlECxoYoAUAunK4wIIofikOhBRBAlICxIUoAkAunKwyI4ofiUGgB5MZxBgkRJQDIhdMVBkTxQ3EotABy4ziDhIgSAOTC6QoDovihOBRaALlxnEFCRAkAcsl3ugqPLrYOe7DovPcqUJoXvhv92uyIzRvvXlgkzdf2iW9LKA6FFkBuHGeQEFECgFz809VjL1+u5jxx/oq5wiOTS+0Kj796pZpTrRbecr4oIVaSvo/Kk+KFr1665SYOJvvtazgPCfbMW+LDKPOr3fLfDb4toTgUWgC5cZxBQkQJAHJxTld1jtBO7QrizfB5jihhIOu/8GKtv9l0s0R7GP3hhYyBb0soDoUWQG4cZ5AQUQKAXJzTlRMZ1P+0i/z1HV3b9r3J1K5SzmuY7bID6Q4H/ppm6/h61fkMMyKo/+/u0iywWtkvtuIEC+ajGPtZP1a7MHsU0V1H0D58/Zjm/tmvjflSzNSXS3oKkdvUmhvMrBexf5QgRBR8W0JxKLQAcuM4g4SIEgDk4kcJzv/V3ydfu1pNK6MEq/m7Vdu1fs3uas/m3Omk/mdR2+3uNmnX27Pa2TuPY1ZvrYv27dSivWWvZ96qa9vLFe0G/XlYO9lVw43rCtzdM18K7eUSn0L8NrUnbQYfShajzl/e357DtyUUJ1Bo7xwen3/7i7NvXn3mlQ+rqfqnulnN3PAeAigdJ0ckRJQAIBexVYJzRUO7qF3h3Wt3qum963eNLbmXExjVTqFBwHyJ8Pu18yN9t755fzdKMO9gxRNalOBd+WBW4ffEqn0+ET/0d6s4L0XEy9V7m2qjBDt/cbYlLvHmeykF35ZQHK3Qvv/5re//6MpTL3zgTNXMatHm9xNAuTg5IiGiBAC5xFzgUE+Pnrs0k7KGJa/K2s1wuvS3m+JblU2xauxt2r/AYSYu1KIE4VHahfZjubXsLJTHtn/eN6r9/V4uP1gIb1NplLBi/At5T/z5bkzBtyUURyy0739+6+kXL7Txwfd+ePn3//5ye7NalClNyJd2Dt/ZDWDYmTGYljg5IiGiBAC5aBc4vPXJTSdK+OjG/erm0Uk357bZcNerTNpRgv4NwMwTdjJKaB7cfOjFtybhSa4TJcRtU2iVoDdHUB5TnU+rBJTPL7R3Do+d9gjfen4+wI3TNiHHlQ5RFf5TdUB7yihhRzu7RQabLEsbe6zoB+LkiISIEgDkkux05dW6u3ru6gp5s4a85ooowV1m1sfFKMF/FPsCh01HCfWumd1UqnsRs3vKOpHb9L7qhIOgFSs58+krAeXzC+35t79wLmrwo4RqqlZLvjNECdhaRAmcHJEIUQKAXBKergLdLtpNE5vu/6b7ftXZWtPoRzAUJdiP052m7Xqsdy+r20W5u4INRQmLfdszfrB390i7GCHi5bKihKhtWhV+9RVw+3DU+nZ0OslgBAeUzi+0z75xNSZKOPvmVXtLdq3C+CBqA9O0d2vnWwPlSEO0+GPZ2Ct6+a+4ZV/0YwGnEB6DqU3fu+UH1q1WzNBRQrmVRzuKfdzYgaX8az+NfefkiISIEgDkkvR0ZZx+69EI7R+k3VOz8n3WWFPsQyD0lUL+FrFqMEj56/xsc1GCP1aE9S1EvxhhtvLlcpofRG3T6QlS/LZzigEchP4c+baE4viF9plXPoyJEqrV7C2FooQzZ+wPoRiXugPliEO0SI8jNesKbNkX+VjA6eljMJlX6y1POeYtMzLzi7rVN/NEvBxSK96Rjxv4/GofEP+7BidHJESUACCX0k9XfHHNQhvFYQ1id46lFz/soHCU8N2XLn7r+ct3D49ma0YJ8sA07gFPvf5I7VFGyFSlrDXuyqYVjwWsIRwlaJ0GWb0iSUVdvHQnUG7t/pciHjfw+VUeSPrRgpMjEiJKAJBL6acrvrhm0qMiEUG77rr04ocd5Bfas2/OL3DYO3ehboxQqf753g8vr3mBg7BmYKCc9qbf2sq/JMxvZ7Rqy77VjwWsIxglKEuMW1pRt7p6lrcxU4p31OMGPr/SMq31IydHJESUACCX0k9XfHEtWunFDztI7Hbxz//lf766fVj9/wevf+QkCHq3i/2jBC/hc6+K0OIDtaNa4xF6RAlxjwWsI0GUEDd0lLsNtXjniBK0yyg5OSIhogQAuXC6woAofiiOOBjkn/zTz/7oHz/WQgRlMEivKqJd4CBe5u2sGejmxXwcreIS2LIv8rGAdawZJcQPHTXzPyNy8Y6PEiIHlvK7SWpxckRCRAkAcuF0hQFR/FAcsdC+//mtp1+8oOUI1aJqBW9LZn9sVj+HdqeHXn+IYueI6hAt0hXe/ng6vbpdjH4s4PTUvgj6VOnjho6yHksv3n0eN2ZgKT1I4OSIpIgSAOTC6QoDovihOFqhff/zW9//0RWxPYKUI9Ta67mtMW+mMQPTuHfShmgxltg9zDu9HISH4HHEPxZwWuoYTJFV+plY1OWho6zH0op3nwscVg8sJXTmwGCQyIMoAUAunK4wIIofihMotHcOj8+//cWzb1x95pUPq+nsm1erm951DatxlQBQriSfX06OSIgoAUAunK4wIIofirOBQjumKCH80ykAF1ECxoYoAUAunK4wIIofirNjUQKAfogSMDZECQBy4XSFAVH8UBwKLYDcOM4gIaIEALlwusKAKH4oDoUWQG4cZ5AQUQKAXDhdYUAUPxSHQgsgN44zSIgoAUAunK62TngQt1jd6Ndmt2vmdp3u2Kyhst352j5R/FAcCi2A3DjOICGiBAC5+Kerx16+XM154vwVc4VHJpfaFR5/9Uo1p1ptozua3Nb2bJYiSqhenOUmDib77as0Dwn2zFviwyjzq93yX2++LaE4FFoAuXGcQUJECQBycU5XdY7QTu0K4s2yz3NECaEtyC/NfNPNEu1h9IcXMobiSxF2D4UWQG4cZ5AQUQKAXJzTlRMZ1P+0i/z1HfNqpNfg3Zxp1iUXdflpu3C+5MC61Ws1+4HamnBdsW2XLOdbbfDdZvwbDRi66wja3a0f33zVuj2qn069r22zAec1l5+yu2pgm1pzg5mVv/SPEoSIgm9LKA6FFkBuHGeQEFECgFz8KMH5v/r75GtXq2lllLCoqDaVyIPJZOrNtG8tKq/LquWykmve6rma+YO5UUGv72EkCOY6VuDQ3JhONtpWwWoc0VXDjesKzKe52NG9fesO7muuPuX4bWppihl8aAmRNn95f3sO35ZQHAotgNw4ziAhogQAuYitEpwrGtpF7QrvXrtTTe9dv2tsyfl9vZ1pV0uN36ztO3i32qp91GrOA7UPYyUM1i/mbpSwfk+FpxPxQ3+3iv105Ndcf8pR21QbJdipkLMtcYk330sp+LaE4lBoAeTGcQYJESUAyCXmAod6evTcpZmUNSxpSYLww7RY+1dvRa3mjBrgtvZv1rdaH7jNAeTqcH7tjji1fuvnfaPar+Uq5v3kpxyzTaVRgpYWBPfEn+/GFHxbQnH8QmvO+fDLu+3hsfq/Xfrrk0u/8crl5KU9Xwoa3vLWdjUDnMqKU2ToXvKFlZwckRBRAoBctAsc3vrkphMlfHTjfnXz6KSbc/vwuNvQ8FGC+lN6RJTQLh0iT1juidNkQrwWY50oIW6bQqsEvTmC8pjqfFoloHz+MfOP//PnZuutX90/mjWZQrvaw+OTr+8fDRMlnKreT5QAJGZ/bMwzq38y5+SIhIgSAOSS7HTlNpNXZtoXOCSLEsRHdx5vtipKUJ9Gbm3PkmY/BOJeh1ocmHOFdSK36b0wakrjPIOYVgn0lYDyOYX2s5sPZnYvM7Vf2cHB4fFJjqJOlAAUQ+kayb814+SIpIgSAOSS8HRlNfBrul20W/25fSMmixL8B9pfVfc2a7nTfbkSvynz57G3Z3/HMDtQ0C5GEF/zQJQQtU2rwh/IaOw+HLW+HZ0eLBjBAaUTC60457l3rrX/P/HqlRcvfmmv4v9GacWs3eVI9sfGbBRtJpDiEC3CaDXyYDfBLXu0PRSHpNE2AmwNr9OjleNGESVgc4gSAOSS9nRlnCzl6/Odn7sTRgn2oys9GVoV42a/qsXaN+uNscaWMHduMVu/GGEmvObB5gdR23S+FLnaTii8Gkpg/kzsz5FvSyjOyiihbo/wgx//wl/HnhmKEpyDmHXtkzVUjRkQiEO0SI8jDHYT2rJP3cPA767A9vLOmsIgSoEmf1zggKyIEgDkwukKAm0UhzWI3TlS/FCccJRQd5Hwb//7tXZf41YwSnCGPul6PPHaEWjDqsgVGG2wm+gtx+8hSQJ2hlPu5TzNuy6oi969DwonRyRElAAgF05XEEV1kRBNq1NQ/FCccJTQDtxQM3tMcDpiXHmBg7Cm90GKGPbFixXEdkartuxQ91AfkgbYYmqEFh43yrrmiAsckAtRAoBcOF1hQBQ/FMcptD/48S/M0R/94XLr8R3M4SEb/aMEL+Fzr4rQ4gPpigZLaMuCQJQgDUkDbLneUYLesKfGyREJESUAyIXTFQZE8UNxTlFoP7v54P9d/sqb7ff1olzg0N72ukHt1gx0C2M+jtaRamDLEnUP28cLd9sIbBeiBIwZUQKAXDhdYUAUPxQnXaF1x5WXb/j9IYqdI6pDtLiVFmWwm9N0uyju4awZkoYkAbsjNkqwEjfnAgcry+PkiISIEgDkwukKA6L4oThJC23bdUE9eJx5gcO06/fAu/JAupM2RIuxxKz6ez0qBLYs7re+h4FBZIHtFBUluJ9E5YO4wMkRCRElAMiF0xUGRPFDcTZQaL2eCEpT/BMABsbJEQkRJQDIhdMVBkTxQ3F2LEoQhnxYdeECbRKAdXFyREJECQBy4XSFAVH8UJwdixL6WQYP9JIArIeTIxIiSgCQC6crDIjih+JQaAHkxnEGCRElAMiF0xUGRPFDcSi0AHLjOIOEiBIA5MLpCgOi+KE4FFoAuXGcQUJECQBy4XS1dcKDuMXqBsA2u10zt+t0x2aPlu3M1/aJ4ofiUGgB5MZxBgkRJQDIxT9dPfby5WrOE+evmCs8MrnUrvD4q1eqOdVq7rbK7Stsq6SIEqq3crmJg8l++57OQ4I985b4MMr8arf80sG3JRSHQgsgN44zSIgoAUAuzumqzhHaqV1BvOme54gSRmH9KEGs9TebbpZoD6M/vJAx8G0JxaHQAsiN4wwSIkoAkItzunIig/qfdpG/fstq1V5XGOd1yoZdM+1W3ptMkzTHL1Z3HcFCV1eXX726nl6/fm2zgT37ha/XaWcbL33kNrXmBjMrLeofJQgRBd+WUBwKLYDcOM4gIaIEALn4UYLzf/X3ydeuVlM4SpizWyUYLeMXVdimemm1krcqxTvJetG6arjy6i2ihr196w7ty3cwmTRRQvsSm692/Da1xiVm8GHmEm4aIvatMBNCCr4toThOoX1wdPKH//DxUy98EJ6u33ow4D4DKAsnRyRElAAgF7FVgnNFQ7uoXeHda3eq6b3rd61tBS5w6Ba5Kzk/y++eiB/6u1XMKwxmyotnr9N7m2qjBCu2cLclLvHmeykF35ZQHKfQ3vjm8KkXPrh7eNxOd6rpwVE9fbOYqpnVmu//363h9hpASTg5IiGiBAC5xFzgUE+Pnrs0k7KGjhclWD9Qd+32rUpnmvEGSta+bM5LIbx6zipyDGOv4wcL4W0qjRK0tCC4J/58N6bg2xKK4xTaLxdRwsmqe/37xze+/eKFv3vni1S7seIjCSCb5B1D+Rvk5IiEiBIA5KJd4PDWJzedKOGjG/erm0cn3Zzbi5/aOtbJcPFF17yQof7fq3MSJTQvjvlKKK/eWlFC3DaFVgl6cwTlMdX5tEpA+U4RJdQ5QrXa3/zHZ6d/YPq1BcaBKAFlIUoAkEvK05V5MtTqs25rei5wmC1fOLP/SbVhQajFgTlXWCdym953mqg3KLJVAn0loHxulHB7RZTQ5gh/Nf10ZeOFEKIEYByIElAWogQAuSSOEqzKsNkFgNWcnm4XHfOvEXt79nUI6qvnVPvFbheVKCFqm1aFX04rZn4fjlrfjuadGcEBW0CLEr55cOz3hmDmCNduHbpRgj7MjTMyiz9EjtbSy/+gC1sHsIb609d9vgKXdgpt/IRFRAnIiigBQC5JT1fNWbIdk7A9y3rjFLSnUi5wmLOGtZhTXj3h1TLqGFKXC07zg6htOj1Bupy390zsAA5Cf458W0JxxCjh+GT2p//8s++cu/jfn3zdLmpzhL+efvrN4fEnN+59+c2huSltmBtpZBa3tqF0ZWuOArNnh7YcZ4E06tOudZoUP7zRi4gSkBVRAoBcBj9d0Wh3jLRRHNYgduc4ePED+tKihL/814Pqn++cu/jTT+dpgtkeoVr64Oik+v9aYEhIKxtQRkQRowR5FBjnyEpmCyTjfkStPon8JgriR9L6UBIlICuiBAC5DHy64reysUr7zmj1GL4toTjaBQ4Pjk7+okkTnv+vz80cofLg4TxKuO5FCcKgKoGeR+QoQRoFxroiQmwlBOCUvJp/M0P48EYsIkpAZkQJAHLZ/OnK/orLl9udxrclFMcptL80ul1s04R6anOEyv2Hx16UEDvMzcxZwb/ljwJDSgtkQ5SAshAlAMiF0xUGRPFDcQJRwsxIE8wcoXJvESX88rYRJUQPc7MUiBLkUWC4dAzIwo0F2tv+5679mAcWESUgM6IEALlwusKAKH4ojhglmKnBg6OTNz64fmyP1nD3sI4SjG4X1UFVxJFZ3OqLP2irNQqMsxGzh0cA67HHnrK6TXY/d3uxi4gSkA9RAoBcOF1hQBQ/FEfsK+Hew+P7D4/vNdPdw/l0p54eHFX/X71+p1rNG8FBG+bGH5nFWN0eDNK4g9sMwbyajCYKQCptKyDxSk19jFd1EVECsiJKAJALpysMiOKH4jiF9t7D49/92w+ffuGDb79YTRd+c3LhtyYXvnPuwm+/dHHvpYvffeni77w8n5564YPfe/XSg4cngS0DQI2TIxIiSgCQC6crDIjih+L4hfb45KRuhmBO9x660zExAoA4nByREFECgFw4XWFAFD8Uh0ILIDeOM0iIKAFALpyuMCCKH4pDoQWQG8cZJESUACAXTlcYEMUPxaHQAsiN4wwSIkoAkAunKwyI4ofiUGgB5MZxBgkRJQDIJeHpyhzNyB4/+TSbau/uD5KEU/n/27ufHkmOtI7jY+GLJS7WvAG/B7NgmpU48Bo4I3HoE2hfACBeAJLdYwNjcbCEuHACWUiNOLGCw1pmZnZG47WQZscWsGJmzUjr8Xj+dE93F9mVVZnxPPE8UVFdEZ0V1d+PSqOurKyszJyozIxfRUacj0J18f+SpXFs+3CgObnc8ZXl/5z32VwtoTkUWgC1cZxBQUQJAGqJT1dvfXSvm3L94/vhDG8c3B1mePvm/W5KN5taVKU6P1FCISWihO4/Y7GIBwf7w/+KGNH+/GMWT+ZDaC8/snsS/z9ytYTmUGgB1MZxBgURJQCoRZ2u+hxheAwzmE/VeY4oYbttHiWYacBy0YtXxlYL6oUwhxhwtYTmUGgB1MZxBgURJQCoRZ2uVGTQ/zG8FM8fUjc4hJXOsMX74VijlXM9sF/o/57/wC3azC/fotvS6897EM/bQDQha+RBldze5H7f9Zs9NBsYZ5xP6ucZJqs9n7FMIwoIVndcvXAmsR1xFMHVEppDoQVQG8cZFESUAKCWOEpQf3f/vvPJl93jwlGCaP4uaru5UYK66T5oM78fNqtfTA9/CT88GJvaiyVu3mlAZWLfjLvG3uR++/b2ZW4y7qaDZZRwLWw8MO7T3GV6GYzoQEHMJKOFKIzgagnNodACqI3jDAoiSgBQi9kqQd3RMLw0zPDZo+fd4/PHL8JFOVGCrlwGFfnsKCGsf4pUwPp4oyG/WocyHRBWFqyzt77jLGqnmGGJnGftZbqNEkRsYUUJe34awdUSmkOhBVAbxxkURJQAoJacGxz6x5s37s6srGFgRwlRldVJDFbc4OB8jmibL3r7uyZ/DI9sfZTgZiPeJsvtjbdPzhMHC+llOo0S9FAd6VYJURzB1RKaExfacMpPv3kxHB67v4dXf+3g7q//5b2tLe3peJUOa4C0i41aZd2LucDJEQURJQCoxbvB4dOHT1WU8MWTV93Tk7NxyrPj03BRdv0/qtaWixLmZ2FvvjBPaOKOhthii8KLfG+TN4kS8pZptEoQzRGcj456YaRVAhoXHzP/4F/+K2y99atXJ7NlpjDM9vr07NtXJ5dR2i9U7ydKAKqLL3mCax7u/kM9RAkAail4uvJbJeTd4OC84FZOU7+yy2nePRHbbr4bgm4q/U1evS/ceTKXaXaladQ93Hho8SJXS2icKrRfPz2ayV5mer+SwcHx6dklFXWiBGA7OV0gxc9mnBxRFFECgFqqRwmpbhd1KO9GCeJefCukCLsUPNyPa96y8WHQz+B2O98Pe3vy2sPaZHPgBKvbRSdKyFqmCAL8dMb5H1o8ZwQHtM4stOaUP//Jo+Hv6zfvf3Dnm3hpzkgr3mgsKwZeEfdyhcdBqxW1M7COwRtGxxxoJrHrgF0VdW6kB0uKvptECbg8RAkAarmEKEFcyvYnWKMbA/FCtKjDcAmzeLnd3KJrAePCOTyRN/MLm4hhztmb7HQ1KTc32fwga5nqYkkbZh4/2o0iFrhaQnNWRgl9e4Qf/fgX8TxqojfSih6NxWqj5Qy8Yh18rbf7Ca/BHUYn8SsrcJVEZ0djsKRE0z5ucEBVRAkAarn80xXXmw3zRnHIYHbbyNUSmpOOEvouEv7x59967w2eZYy0kjn6jJvjem9PDKxj8IfRyRhoBrgC1DfBTtiiO4XGTD766nByREFECQBqIUrAWi7WhaX3n87VEpqTjhKGgRt6YY8JqiPGrO5Rk6PPWAOvWLeHxW9PDaxjSAyjkxqEF7gy3FAtDBbi4afEXUjc4IBaiBIA1EKUgAlxtYTmqEL7ox//Ihz9MR4utx/fIRweciE3SjAPl/74NalOa93FXjhKsAaaAa6ctaMEv6lPj5MjCiJKAFALpytMiOKH5lyg0H799Oiv7/2fnrrWSCv5c4XVldTbN7jBQTyPBpoBrh6iBGwzogQAtXC6woQofmhO2a5qV4y04o0+4w68oqso3uA1F+h20RhGZ/l8b48kAVdabpSguicWNziIdI+TIwoiSgBQC6crTIjih+aULbQrRlrR88gGB8bAK8ErYdU/entyYB1jJb1hdJZLamZUHKCGrChBfzdT40pxckRBRAkAauF0hQlR/NAcCq0WdaUAYEMcZ1AQUQKAWjhdYUIUPzRnpwutMeTDqhsXaJMAlLfTxxlcNqIEALVwusKEKH5oDoV2sAge6CUBKI3jDAoiSgBQC6crTIjih+ZQaAHUxnEGBRElAKiF0xUmRPFDcyi0AGrjOIOCiBIA1MLpChOi+KE5FFoAtXGcQUFECQBq4XS1c9LDuuUaB8AOO2KLxrs3XrKme+tE8UNzKLQAauM4g4KIEgDUEp+u3vroXjfl+sf3wxneOLg7zPD2zfvdlG62Wuu0ydBiDEtWJEroduNiEQ8O9of9eR4S7IXPzI9xpnerFf/PcLWE5lBoAdTGcQYFESUAqEWdrvocYXgMM5hPa53niBI2snmUYNb6l4tevuJ9jP/xRsbA1RKaQ6EFUBvHGRRElACgFnW6UpFB/8fwUjy/cl6NjBq8hxODumRf5RxeXNRQRev45czBEhazzafIT9g/NN47TtrSgGG8j2BurKuHe21c936n9Vs1NBtQ+9zesXrWxDK95gYzkdSsHyUYEQVXS2gOhRZAbRxnUBBRAoBa4ihB/d39+84nX3aPlVGCqN4/ODg4jCaKZ329NkgQhlqmbFkQ/hIe1Lxlpdt8b/jC4cF2RglyY8dqeHBfgd5pe3v74g16n7s7Nn+ZXu4SBh9OQuROX7xfTuFqCc2h0AKojeMMCiJKAFCL2SpB3dEwvDTM8Nmj593j88cvgiWp39eHibJaGlaW98xKtHqTWkIw3+JPOYOOEjbvf7C2jB/6x1nkTrP3ub9js5bpNkqQqZBalvlKND1KKbhaQnMotABq4ziDgogSANSSc4ND/3jzxt2ZlTUseEmC8cP02JhA3u4wtCDYl80QND1WgBpWQFaj7UruNnH2iPx5P6j2j7OY+zyxY3OW6TRK8NKC5JrE03VMwdUSmlOw0NK1i295XJp6H6049F36cuLF7kQRSvx3Gy/tylbPEhvOyREFESUAqMW7weHTh09VlPDFk1fd05Ozccqz49NxQRWjBPfySzTlV4tXM21znrBYZ9Uww7zjY5MoIW+ZRqsEvzmC85nudFoloH0FR73ZoRpRcdsSJVzcpaz52h9ScK1KbiBRAlECKiJKAFBLsdOVbibvTJQ3OKyOEszFhouKm/wbsyeWsg3mK30Y7A9336RaHIRTjXkylxntwmSYs2omNZ2+EtC+gqPe7FCNqDiihDofQpSwXYgScBmIEgDUUraxbtztomzV6Q8mqKIE9dN7uIR9fYe/0y/j+d921Xz7nF9F7AU/2Ov95N2MYO7zRJSQtUxR4XdDGN2Ho9e3o+roghEc0LqCo95Y92OZA6xYA7LIAWqCKDLut9bqK1V+FZ1FqTdNX31LjgckhrZxt2jN/TzuzfhuuzEV1wuMhxMyev1xNyR//J1VlWo5hlG0Vmq/+SVHfn4/q1yU917jv2bzEtXwFyd7VClOjiiIKAFALWVPV8HlxaoTfeoH9uU7RHN/sQQx4oMapmB471ZdAqfJ7ZmFO62b7N+MMDP2ebL5QdYyVU+Q2jDkpJyiV/yabqhg9OfI1RKaU3DUG9kAyx1gxRyQRY96c+3ayhqR8xGJRflB7RTkrVZ6L4XD0CS3aO39bDf98tLTsC8fp86f3pB1xt9JRgkioD+wtkftt0TJMYZnkrOnogQ96tDGJarVL475P+Lg5IiCiBIA1MLpCgaj1r+puEnCjOKHBpUb9cavB8qkT//Uar01qJSlflu2PiJ7URM374r2lqqv+j/VuzXW1fvZa3Hv1N9VRz/2OmVvyOr/u5VRgtWBkd3+LVqYKGzWeuRHCe5/zQVLVKtfnHU2l5MjCiJKAFALpyuYyv4A6V1BUfzQnGKj3qQbvZuNhpyuT2aJyq/fTN1sxjTTVUizUdIUjEPSsKXxRno7Z/k0cz879X5Vj7UW6EcJ622I3b4vK0pYvkPfv+ZmFU7J8U4G2VGCul9x8xLV7BfH+h9xcHJEQUQJAGrhdIUJUfzQnGKj3uhflzMGWBlqRFHtLqNG5HxEYlFT39Eg5NfAV+ycdfazWWuN77s344OSUYL7KckoYVjINeeOiEmihAIlqu0vTl6ewMkRBRElAKiF0xUmRPFDc8p2VbuqJpv4cTWvcbW4T9v6iMSiEi35L1+8Ml59dcUWrbOf4/qyuw7RJ3tRwgU2xP+U1VFCanuSUYJ5h38oESVk7PFNtP/FWT0HJ0cURJQAoBZOV5gQxQ/NqRYlLGsWD8IO41L1GFFrHX/mnL8U/ggfVwijj3AW1T8LOgjc37waeHF6ZbzxgBJbtPZ+1j+A6+qfu0D907Rqr7DewEb+p6SiBHMMI7FW1n6LS45a4bDbRbko6736NoDcEpWsa7f6xVlnVClOjiiIKAFALZyuMCGKH5pTJUoIb8be8wdYEfWr4PbtftQ745Z08YLzEelFifu+J2+iEN6y7t7XrmaUW7Tufhbt2RO3vyf26vIuAe/2/uQN+mG11fiUVJQQfIb6iOVaxfvNLjly86MSKKrf6r1GnTmrRGVGCW19cez/ERsnRxRElACgFk5XmBDFD83ZzkKb19D9she1JXZvi1DK1n5xtvM4g0YRJQCohdMVJkTxQ3O2sdAW7B9xq7paLGL3tsjgtZlA0hZ/cbbxOINmESUAqIXTFSZE8UNztqTQyrrjRnWYgovaEru3RSillS/OlhxnsBuIEgDUwukKE6L4oTkUWgC1cZxBQUQJAGrhdIUJUfzQHAotgNo4zqAgogQAtXC6woQofmgOhRZAbRxnUBBRAoBaKg1stsk8m7/lals9YHWOsQ+p8H7QaHxw4yVrurdOXC2hORRaALVxnEFBRAkAaolPV299dK+bcv3j++EMbxzcHWZ4++b9bko3m1oUUcJ2KBEldDt9GFF7f9j75yHBXvjM/Bhnerda8f8jV0toDoUWQG0cZ1AQUQKAWtTpqs8Rhscwg/lUneeIErbD5lGCWetfLnr5ivcx/scbGQNXS2gOhRZAbRxnUBBRAoBa1OlKRQb9H8NL8fwhUec/r1AuBdXSfp7xRVljDd4kfvwWT8x3NkuNRT3W1e0d2NfT+70wNBsYZwxuJhgmBzsqc5lec4OZ+M9YP0owIgqultAcCi2A2jjOoCCiBAC1xFGC+rv7951Pvuwea0UJQbP4ef11WbfsK6xhbXR4KfzFO6xhj4sN5zg82I0oIQ5g+s12duB8F+zty8Rm3IMHyyhh2MfhPQn5y/RymjD4CHMJnYZ4I21HIQVXS2gOhRZAbRxnUBBRAoBazFYJ6o6G4aVhhs8ePe8enz9+ES7KvRMheEH9CB+kA+rdY6VaRgmb9ye4bTJ+6LfTlFm8O2fxPGsv022UIGILvSzzlWh6lFJwtYTmUGgB1MZxBgURJQCoJecGh/7x5o27MytrGBhhQNScPooblhNUt//BT9qqqm1XWls2bKCq9Vs7UM5iJglqnjhYSC/TaZTgpQXJNYmn65iCqyU0p2yhXX4lU0e18LBJ3zHARVUc3kh9K+17Ma3hkBjeCJeAKAFALd4NDp8+fKqihC+evOqenpyNU54dn4aLUo0PzIvfZJTgdtYn3rJ7ecJiC8MrCm8HbhIl5C3TaJXgN0dwPtOdTqsEtK/gqDdRkyAbUQJQQtnhjbo/xRjIw5Pgay3vJXSGQ2J4I9RGlACgloKnK69yKro4iH+lHvsKXHl7xCDvArwZ8008DHaauwNTLQ7CqcY8mcuMdrgf8sgtyGmVQF8JaF/BUW8yqzZECUAJFYc3kv07rTxNq8kMb4S6iBIA1FItSpA3JYjmCuK3d9HTYhjr749vGboQXNUksFXn27gXXKG4O9Co9pvdLjpRQtYyxVWNG9roPhy9vh3VPS+M4IDWlRr1JuqgVKYEwfcyO0pYd/SWMcUc1+KBeGatLVEGLkNbwxsl2/k5XQnJz+fkiHqIEgDUUiVKCM/L3SR9g8N45apOsOGNhE5L/B29mBWhyjlnBxoZSnS3ZrL5QdYy4+4phOGaTE7RK2799/LDC5pXcNQb+eUrEyWsM3qLuOtp8dU1Gma7w+sAFTU0vFH4pbDuyYy/MKv6EeLkiJKIEgDUwukKBv+3lwvjdlDshoKj3tSIEtYZvUXVZ6JnY53LHl4HqGn7hzdaJvlqpihKUN9Zo/8hOhJCTUQJAGrhdAVT2Z8e6aQaO6PgqDc1ooR1Rm9RS3Oe+cPrAFU1MbzR8GY7eUvfligmM7wRaiFKAFALpytMiOKH5hQc9eayooTMIXUSUQLRAaaw7cMbyVUd+lNw+0rwh0OiVQJqIkoAUAunK0yI4ofmlCy0iShB9gi/UZSQHFJndZSwYwPmoCVbPbyRXtPFvKlM0I0i6CsBNRElAKiF0xUmRPFDc6pFCeEvlqIj+hJRgjukzuoowR9eB6hte4c3mh0eyORP9Ewa97aQjOQYwQFVESUAqIXTFSZE8UNzqkUJs6Bbgn7EumJ9JSSH1FkdJYRrtoMD6GCbbe3wRnb3I9FHy6jQ6XOE4Y1QF1ECgFo4XWFCFD80h0ILXF0Mb4QGESUAqIXTFSZE8UNztqPQGsMq0DUicAkY3gjNIUoAUAunK0yI4ofmUGgB1MZxBgURJQCohdMVJkTxQ3MotABq4ziDgogSANTC6QoTovihORRaALVxnEFBRAkAauF0hQlR/NAcCi2A2jjOoCCiBAC11DtdeZ0JZUqOebal5OjrwoZ7o4QyqxD1OJUcgiscq5uepbATKLQAauM4g4KIEgDUEp+u3vroXjfl+sf3wxneOLg7zPD2zfvdlG629JJ3MErYYJ12JEqQ42ANkUG4WD1W9/I1xrvCbqDQAqiN4wwKIkoAUIs6XfU5wvAYZjCfps9zRAmhnYgSZBqwaJ+gminIp0GuYI7HzdUSmkOhBVAbxxkURJQAoBZ1ulKRQf/H8FI8vxK2bD+UNdf5L9Sy1fuybj6+JCuqYbU9ePtYVVW12KHeOn/v4fCO81keiGfJteqr3MMri+liGHenRq7WObE3VvI2TeyI8cP6de4/cPG2cMb5JHu79KyJZRpRQLSmOq8Qr8YNE7haQnMotABq4ziDgogSANQSRwnq7+7fdz75snusjBLOa43hL9DXRON2+dLihX6u8Ib6MCYQlXtRIV0+E3X3sRY7X2zYyP6a1+TeWqv+HUGCEM6TbJUQvp7YG1mcTXtwsG/tlfmm7O2LNwTbebCMEsztyl+mtfUyStC7SEYLURjB1RKaowrt0cnZ7//tz959/1b68fi7ownXGUBbODmiIKIEALWYrRLUHQ3DS8MMnz163j0+f/wiWJKuRMrEQLcwGOv8zn32wXuiGrxYgNGzX1S7Neu63lqJhEHUhdeIEhJ7I5O9ac4scp3tT/O3K2uZTqOEjChhz08juFpCc1ShffL98bvv33pxfDo8nnePo5P+8f380U3s5vyP//luurUG0BJOjiiIKAFALTk3OPSPN2/cnVlZw0JUNVWNBBSjVYGcIP4yhgjQs/lVfueZu1ZyS8K6cH6UkNgb2cxNm6l7PczPs3MLf7tyluk1SlirVUIUR3C1hOaoQvvNPEo4W/Wuf/rZkx98cPtvfvK/hdZi7SNKYnyZlW/cum5rgEkV/1LEC+TkiIKIEgDU4t3g8OnDpypK+OLJq+7pydk45dn8p7aFxCCB/i/ym0cJyz/FhXV2lGCuVYkoIWfIxJWMTQtv3fCji/WihLxl5rdK8PtKoFUCdsAFooQ+R+hm+7N//lq8cPEayeV15EqUAChECWgLUQKAWoqdrnRzeNX5gH3aTVQ8/Yb2MyM3ONRV6dVRgrtWpVolbHiDg7Vp7qqlWhys2K7MZbpbH4/goDp0TDRK4GoJ7dFRwrMVUcKQI/zJ4Vd6NqIEoEFECWgLUQKAWgqerhIdDcq2tWM3f/FcZheH+u3RPfx7e7rGujpKcNcqGSUkr95LdrsYbJq8D0F0Upmo9pvdLjpRQtYynWYJVhzkBCqM4IAd4EUJ3x+dxr0hhDnCo++OwyhB3GIVpoXRYCpyenpAFnegFqNvGPXh9kguRAmAdugPPjVzBpxKv0SUgKqIEgDUUvR0FZwl+4tZeaaML1OHn91Xnlmdq9zhNd0EICdKcNYq8Qv/ci2yBoNM7Y1cIpCQC+0mJ/pmEJtmdbmgmh9kLdOsU9j3n1hXUUYUwdUSmmNGCadnsz/8+/9878adf3v47fDSkCP86eFX3x+fPnzy8pvvj8Wy4kOGyB/DOn7mgCzuQC3hR1kL9EZyIUoAtEN/8Cl3wKnkS0QJqIooAUAt056uylykcql7aZz+EnKY3TZytYTmeFHCH//Dg+6P927c+fevztOEsD1C9+rRyVn39yM1JKQ4dhnx6fzbZraG8gZkcQdqUe2xVnyP4+5oACzpr5Doe8i7HzPxElEC6iJKAFBL+1GC3xNDRcbwD5dz3/LkLtTpg3tjN1dLaI53g8PRydkfLdOEv/jX/w5zhM7R6/Mo4XEiSjAOKvMvzXq9qLqNj5Id2QazR820iBIAxe0xOtFLdLIDaaIEVEWUAKCWpqOExbX3FanE7yKultAcVWh/GXS7OKQJ/WPIETqvXp9mRAmrx0hZKh4leCO5ECUAGlEC2kKUAKAWTleYEMUPzUlECbMgTQhzhM7LeZTwy2d+lOC1r1prQJacKMFc4MUHrgGuHHfwqcSAU8mxqIgSUBVRAoBaOF1hQhQ/NMeMEsLU4Ojk7O9uPT6VAz++OO6jhKjbRTmKrT/STd6ALDlRgrlAdyQXogRASw8+5Q04lX6JKAH1ECUAqIXTFSZE8UNzzL4SXr4+ffX69OXy8eL4/PG8fxyddH9/+fh5N5sewSEaFMYc6UZOT0cGWVGCtUBvJBeiBEBLDD41Sw445b1ElICqiBIA1MLpChOi+KE5qtC+fH36u3/10994/9YPPuget3/z4PZvHdx+78bt3/7wzt6Hd37nwzs//Oj88e77t37v5t2j12eJJQNAj5MjCiJKAFBLf7riwWPCx9RfAmANcaE9PTvrmyGEj5ev9eOUGAFAHk6OKIgoAUAtk1cjefCY+ksArIFCC6A2jjMoiCgBAABgelziA6iN4wwKIkoAAACYHpf4AGrjOIOCiBIAAACmxyU+gNo4zqAgogQAAIDpcYkPoDaOMyiIKAEAAGB6k3dTyoMHjyvymPpohx1BlAAAADC9yWsXPHjwuCKPqY922BFECQAAAAAAYA1ECQAAAAAAYA1ECQAAAAAAYA1ECQAAAAAAYA1ECQAAAAAAYA1ECQAAAAAAYA1ECQAAAAAAYA1ECQAAAAAAYA1ECQAAAAAAYA1ECQAAAAAAYA3/D+hzIaZ/ts7oAAAAAElFTkSuQmCC;" vertex="1" parent="1">
          <mxGeometry x="230" y="190" width="1390" height="948" as="geometry" />
        </mxCell>
      </root>
    </mxGraphModel>
  </diagram>
</mxfile>
